<svg width="66" height="43" viewBox="0 0 66 43" fill="none" xmlns="http://www.w3.org/2000/svg">
<g opacity="0.5" clip-path="url(#clip0_218_524)">
<path d="M21.4604 27.7924L16.9661 25.2188" stroke="#AECBE3" stroke-width="0.5" stroke-miterlimit="10"/>
<path d="M15.7652 24.5316L11.6217 22.1592" stroke="#AECBE3" stroke-width="0.5" stroke-miterlimit="10"/>
<path d="M34.2764 35.1288L33.7009 34.7998" stroke="#AECBE3" stroke-width="0.5" stroke-miterlimit="10"/>
<path d="M26.8051 30.8519L22.6616 28.4795" stroke="#AECBE3" stroke-width="0.5" stroke-miterlimit="10"/>
<path d="M32.5015 34.1124L28.0059 31.5388" stroke="#AECBE3" stroke-width="0.5" stroke-miterlimit="10"/>
<path d="M4.7261 18.2115L4.14038 17.8762" stroke="#AECBE3" stroke-width="0.5" stroke-miterlimit="10"/>
<path d="M10.4209 21.4723L5.92529 18.8987" stroke="#AECBE3" stroke-width="0.5" stroke-miterlimit="10"/>
<path d="M18.1109 24.5369L11.613 20.8169" stroke="#AECBE3" stroke-width="0.5" stroke-miterlimit="10"/>
<path d="M21.4533 26.45L19.312 25.2239" stroke="#AECBE3" stroke-width="0.5" stroke-miterlimit="10"/>
<path d="M35.4457 34.4604L33.6936 33.457" stroke="#AECBE3" stroke-width="0.5" stroke-miterlimit="10"/>
<path d="M32.4921 32.77L30.3508 31.5439" stroke="#AECBE3" stroke-width="0.5" stroke-miterlimit="10"/>
<path d="M29.1504 30.8569L22.6538 27.137" stroke="#AECBE3" stroke-width="0.5" stroke-miterlimit="10"/>
<path d="M10.4134 20.1296L8.27209 18.9036" stroke="#AECBE3" stroke-width="0.5" stroke-miterlimit="10"/>
<path d="M7.07124 18.2167L5.30896 17.2083" stroke="#AECBE3" stroke-width="0.5" stroke-miterlimit="10"/>
<path d="M20.4541 24.5406L11.6057 19.4756" stroke="#AECBE3" stroke-width="0.5" stroke-miterlimit="10"/>
<path d="M36.6126 33.791L33.684 32.1145" stroke="#AECBE3" stroke-width="0.5" stroke-miterlimit="10"/>
<path d="M31.4944 30.8607L22.646 25.7957" stroke="#AECBE3" stroke-width="0.5" stroke-miterlimit="10"/>
<path d="M9.41551 18.2217L6.47668 16.5388" stroke="#AECBE3" stroke-width="0.5" stroke-miterlimit="10"/>
<path d="M21.4367 23.7661L12.9584 18.9124" stroke="#AECBE3" stroke-width="0.5" stroke-miterlimit="10"/>
<path d="M22.7994 24.5455L22.6373 24.4531" stroke="#AECBE3" stroke-width="0.5" stroke-miterlimit="10"/>
<path d="M37.7809 33.123L35.0386 31.5527" stroke="#AECBE3" stroke-width="0.5" stroke-miterlimit="10"/>
<path d="M33.8374 30.8658L33.6766 30.7734" stroke="#AECBE3" stroke-width="0.5" stroke-miterlimit="10"/>
<path d="M32.4757 30.0864L23.9987 25.2327" stroke="#AECBE3" stroke-width="0.5" stroke-miterlimit="10"/>
<path d="M11.7587 18.2254L11.5979 18.1331" stroke="#AECBE3" stroke-width="0.5" stroke-miterlimit="10"/>
<path d="M10.3968 17.4459L7.64429 15.8706" stroke="#AECBE3" stroke-width="0.5" stroke-miterlimit="10"/>
<path d="M14.1044 18.2307L11.5892 16.7908" stroke="#AECBE3" stroke-width="0.5" stroke-miterlimit="10"/>
<path d="M25.1447 24.5508L22.6295 23.1108" stroke="#AECBE3" stroke-width="0.5" stroke-miterlimit="10"/>
<path d="M36.1839 30.8706L33.6675 29.4307" stroke="#AECBE3" stroke-width="0.5" stroke-miterlimit="10"/>
<path d="M38.9493 32.4537L37.3835 31.5579" stroke="#AECBE3" stroke-width="0.5" stroke-miterlimit="10"/>
<path d="M32.4681 28.7439L26.3441 25.2378" stroke="#AECBE3" stroke-width="0.5" stroke-miterlimit="10"/>
<path d="M21.4275 22.4236L15.3048 18.9175" stroke="#AECBE3" stroke-width="0.5" stroke-miterlimit="10"/>
<path d="M10.3893 16.1036L8.81335 15.2014" stroke="#AECBE3" stroke-width="0.5" stroke-miterlimit="10"/>
<path d="M16.448 18.2354L11.5811 15.4492" stroke="#AECBE3" stroke-width="0.5" stroke-miterlimit="10"/>
<path d="M27.4878 24.5557L22.6208 21.7695" stroke="#AECBE3" stroke-width="0.5" stroke-miterlimit="10"/>
<path d="M38.5271 30.8746L33.6602 28.0884" stroke="#AECBE3" stroke-width="0.5" stroke-miterlimit="10"/>
<path d="M40.1172 31.7857L39.728 31.5618" stroke="#AECBE3" stroke-width="0.5" stroke-miterlimit="10"/>
<path d="M32.4591 27.4013L28.6882 25.2427" stroke="#AECBE3" stroke-width="0.5" stroke-miterlimit="10"/>
<path d="M21.4201 21.0812L17.6493 18.9226" stroke="#AECBE3" stroke-width="0.5" stroke-miterlimit="10"/>
<path d="M10.3805 14.7622L9.98108 14.5332" stroke="#AECBE3" stroke-width="0.5" stroke-miterlimit="10"/>
<path d="M40.8721 30.8796L33.652 26.7458" stroke="#AECBE3" stroke-width="0.5" stroke-miterlimit="10"/>
<path d="M32.4505 26.0589L31.0341 25.2478" stroke="#AECBE3" stroke-width="0.5" stroke-miterlimit="10"/>
<path d="M18.7936 18.2407L11.5723 14.1069" stroke="#AECBE3" stroke-width="0.5" stroke-miterlimit="10"/>
<path d="M21.4125 19.7388L19.9948 18.9277" stroke="#AECBE3" stroke-width="0.5" stroke-miterlimit="10"/>
<path d="M29.8326 24.5595L22.6125 20.427" stroke="#AECBE3" stroke-width="0.5" stroke-miterlimit="10"/>
<path d="M42.4538 30.4483L33.6437 25.4048" stroke="#AECBE3" stroke-width="0.5" stroke-miterlimit="10"/>
<path d="M21.1364 18.2446L12.3174 13.196" stroke="#AECBE3" stroke-width="0.5" stroke-miterlimit="10"/>
<path d="M32.1763 24.5645L22.6044 19.0845" stroke="#AECBE3" stroke-width="0.5" stroke-miterlimit="10"/>
<path d="M32.4351 23.3739L24.6829 18.9365" stroke="#AECBE3" stroke-width="0.5" stroke-miterlimit="10"/>
<path d="M23.4834 18.2493L22.5966 17.7419" stroke="#AECBE3" stroke-width="0.5" stroke-miterlimit="10"/>
<path d="M21.3967 17.055L13.952 12.7935" stroke="#AECBE3" stroke-width="0.5" stroke-miterlimit="10"/>
<path d="M34.5216 24.5684L33.636 24.061" stroke="#AECBE3" stroke-width="0.5" stroke-miterlimit="10"/>
<path d="M43.1661 29.5171L35.7227 25.2556" stroke="#AECBE3" stroke-width="0.5" stroke-miterlimit="10"/>
<path d="M44.7905 29.1108L44.3579 28.8628" stroke="#AECBE3" stroke-width="0.5" stroke-miterlimit="10"/>
<path d="M36.8654 24.5736L33.6267 22.72" stroke="#AECBE3" stroke-width="0.5" stroke-miterlimit="10"/>
<path d="M25.8267 18.2545L22.5892 16.4009" stroke="#AECBE3" stroke-width="0.5" stroke-miterlimit="10"/>
<path d="M15.0956 12.1117L14.6541 11.8586" stroke="#AECBE3" stroke-width="0.5" stroke-miterlimit="10"/>
<path d="M21.3882 15.7138L16.2966 12.7986" stroke="#AECBE3" stroke-width="0.5" stroke-miterlimit="10"/>
<path d="M32.4277 22.0328L27.0273 18.9417" stroke="#AECBE3" stroke-width="0.5" stroke-miterlimit="10"/>
<path d="M43.1582 28.1758L38.0653 25.2605" stroke="#AECBE3" stroke-width="0.5" stroke-miterlimit="10"/>
<path d="M45.9589 28.4416L44.3497 27.5205" stroke="#AECBE3" stroke-width="0.5" stroke-miterlimit="10"/>
<path d="M39.2108 24.5787L33.619 21.3774" stroke="#AECBE3" stroke-width="0.5" stroke-miterlimit="10"/>
<path d="M28.1719 18.2583L22.5801 15.0571" stroke="#AECBE3" stroke-width="0.5" stroke-miterlimit="10"/>
<path d="M17.4411 12.1152L15.8218 11.189" stroke="#AECBE3" stroke-width="0.5" stroke-miterlimit="10"/>
<path d="M21.3801 14.37L18.6416 12.8022" stroke="#AECBE3" stroke-width="0.5" stroke-miterlimit="10"/>
<path d="M32.4189 20.6901L29.3741 18.9465" stroke="#AECBE3" stroke-width="0.5" stroke-miterlimit="10"/>
<path d="M43.1501 26.8333L40.4116 25.2656" stroke="#AECBE3" stroke-width="0.5" stroke-miterlimit="10"/>
<path d="M46.6823 27.5191L44.3433 26.1792" stroke="#AECBE3" stroke-width="0.5" stroke-miterlimit="10"/>
<path d="M43.1414 25.4919L42.7548 25.2705" stroke="#AECBE3" stroke-width="0.5" stroke-miterlimit="10"/>
<path d="M30.5154 18.2636L22.5718 13.7161" stroke="#AECBE3" stroke-width="0.5" stroke-miterlimit="10"/>
<path d="M21.3714 13.0288L20.9847 12.8074" stroke="#AECBE3" stroke-width="0.5" stroke-miterlimit="10"/>
<path d="M19.7852 12.1204L17.4359 10.7754" stroke="#AECBE3" stroke-width="0.5" stroke-miterlimit="10"/>
<path d="M32.4105 19.349L31.7163 18.9517" stroke="#AECBE3" stroke-width="0.5" stroke-miterlimit="10"/>
<path d="M41.5553 24.5836L33.6117 20.0361" stroke="#AECBE3" stroke-width="0.5" stroke-miterlimit="10"/>
<path d="M47.8169 26.8307L45.0989 25.2756" stroke="#AECBE3" stroke-width="0.5" stroke-miterlimit="10"/>
<path d="M32.4022 18.0063L23.3292 12.8123" stroke="#AECBE3" stroke-width="0.5" stroke-miterlimit="10"/>
<path d="M21.3635 11.6876L18.6365 10.1262" stroke="#AECBE3" stroke-width="0.5" stroke-miterlimit="10"/>
<path d="M43.1339 24.1496L34.0609 18.9556" stroke="#AECBE3" stroke-width="0.5" stroke-miterlimit="10"/>
<path d="M49.4632 26.436L47.4457 25.2808" stroke="#AECBE3" stroke-width="0.5" stroke-miterlimit="10"/>
<path d="M46.2434 24.5924L44.3254 23.4941" stroke="#AECBE3" stroke-width="0.5" stroke-miterlimit="10"/>
<path d="M32.3928 16.6641L25.6742 12.8176" stroke="#AECBE3" stroke-width="0.5" stroke-miterlimit="10"/>
<path d="M24.4737 12.1305L22.5558 11.0322" stroke="#AECBE3" stroke-width="0.5" stroke-miterlimit="10"/>
<path d="M21.3559 10.3451L19.3257 9.18359" stroke="#AECBE3" stroke-width="0.5" stroke-miterlimit="10"/>
<path d="M35.2057 18.2734L33.5966 17.3523" stroke="#AECBE3" stroke-width="0.5" stroke-miterlimit="10"/>
<path d="M43.1248 22.8072L36.4062 18.9607" stroke="#AECBE3" stroke-width="0.5" stroke-miterlimit="10"/>
<path d="M48.5873 24.5974L44.3163 22.1528" stroke="#AECBE3" stroke-width="0.5" stroke-miterlimit="10"/>
<path d="M50.6305 25.7665L49.7883 25.2844" stroke="#AECBE3" stroke-width="0.5" stroke-miterlimit="10"/>
<path d="M37.5484 18.2774L33.5874 16.01" stroke="#AECBE3" stroke-width="0.5" stroke-miterlimit="10"/>
<path d="M21.3467 9.00257L20.4943 8.51416" stroke="#AECBE3" stroke-width="0.5" stroke-miterlimit="10"/>
<path d="M32.3867 15.3227L28.0187 12.8225" stroke="#AECBE3" stroke-width="0.5" stroke-miterlimit="10"/>
<path d="M26.8174 12.134L22.5476 9.68945" stroke="#AECBE3" stroke-width="0.5" stroke-miterlimit="10"/>
<path d="M43.1174 21.4661L38.7494 18.9658" stroke="#AECBE3" stroke-width="0.5" stroke-miterlimit="10"/>
<path d="M50.9331 24.6012L44.309 20.8091" stroke="#AECBE3" stroke-width="0.5" stroke-miterlimit="10"/>
<path d="M43.1099 20.1222L41.0962 18.9695" stroke="#AECBE3" stroke-width="0.5" stroke-miterlimit="10"/>
<path d="M29.163 12.1393L22.5388 8.34717" stroke="#AECBE3" stroke-width="0.5" stroke-miterlimit="10"/>
<path d="M32.3775 13.9791L30.3651 12.8264" stroke="#AECBE3" stroke-width="0.5" stroke-miterlimit="10"/>
<path d="M39.8949 18.2825L33.5782 14.6663" stroke="#AECBE3" stroke-width="0.5" stroke-miterlimit="10"/>
<path d="M52.9671 24.4293L44.3011 19.468" stroke="#AECBE3" stroke-width="0.5" stroke-miterlimit="10"/>
<path d="M31.507 12.1446L22.8296 7.177" stroke="#AECBE3" stroke-width="0.5" stroke-miterlimit="10"/>
<path d="M42.2393 18.2875L33.5696 13.325" stroke="#AECBE3" stroke-width="0.5" stroke-miterlimit="10"/>
<path d="M53.8236 23.5814L45.7843 18.9795" stroke="#AECBE3" stroke-width="0.5" stroke-miterlimit="10"/>
<path d="M44.5835 18.2912L44.2938 18.1255" stroke="#AECBE3" stroke-width="0.5" stroke-miterlimit="10"/>
<path d="M32.3609 11.294L24.3215 6.69214" stroke="#AECBE3" stroke-width="0.5" stroke-miterlimit="10"/>
<path d="M33.8514 12.1482L33.5618 11.9824" stroke="#AECBE3" stroke-width="0.5" stroke-miterlimit="10"/>
<path d="M43.0926 17.4386L35.0532 12.8367" stroke="#AECBE3" stroke-width="0.5" stroke-miterlimit="10"/>
<path d="M46.9259 18.2962L44.2856 16.7842" stroke="#AECBE3" stroke-width="0.5" stroke-miterlimit="10"/>
<path d="M53.8142 22.2402L48.1279 18.9846" stroke="#AECBE3" stroke-width="0.5" stroke-miterlimit="10"/>
<path d="M55.3035 23.092L55.0164 22.9275" stroke="#AECBE3" stroke-width="0.5" stroke-miterlimit="10"/>
<path d="M32.3518 9.95289L26.6655 6.69727" stroke="#AECBE3" stroke-width="0.5" stroke-miterlimit="10"/>
<path d="M25.465 6.01017L25.1664 5.83936" stroke="#AECBE3" stroke-width="0.5" stroke-miterlimit="10"/>
<path d="M43.0844 16.0974L37.3982 12.8418" stroke="#AECBE3" stroke-width="0.5" stroke-miterlimit="10"/>
<path d="M36.1942 12.1531L33.554 10.6411" stroke="#AECBE3" stroke-width="0.5" stroke-miterlimit="10"/>
<path d="M49.2732 18.3012L44.2773 15.4417" stroke="#AECBE3" stroke-width="0.5" stroke-miterlimit="10"/>
<path d="M53.8065 20.8966L50.4734 18.9885" stroke="#AECBE3" stroke-width="0.5" stroke-miterlimit="10"/>
<path d="M56.4726 22.4223L55.0077 21.5847" stroke="#AECBE3" stroke-width="0.5" stroke-miterlimit="10"/>
<path d="M32.3446 8.61047L29.0115 6.70239" stroke="#AECBE3" stroke-width="0.5" stroke-miterlimit="10"/>
<path d="M27.8101 6.01539L26.335 5.17017" stroke="#AECBE3" stroke-width="0.5" stroke-miterlimit="10"/>
<path d="M43.0763 14.7533L39.7432 12.8452" stroke="#AECBE3" stroke-width="0.5" stroke-miterlimit="10"/>
<path d="M38.5412 12.1569L33.5466 9.29858" stroke="#AECBE3" stroke-width="0.5" stroke-miterlimit="10"/>
<path d="M51.6156 18.3052L44.2692 14.0994" stroke="#AECBE3" stroke-width="0.5" stroke-miterlimit="10"/>
<path d="M53.7997 19.5552L52.8184 18.9934" stroke="#AECBE3" stroke-width="0.5" stroke-miterlimit="10"/>
<path d="M57.6406 21.7542L55.0004 20.2422" stroke="#AECBE3" stroke-width="0.5" stroke-miterlimit="10"/>
<path d="M43.0671 13.4121L42.0858 12.8503" stroke="#AECBE3" stroke-width="0.5" stroke-miterlimit="10"/>
<path d="M30.1531 6.01905L27.5027 4.50195" stroke="#AECBE3" stroke-width="0.5" stroke-miterlimit="10"/>
<path d="M32.3354 7.26809L31.3541 6.7063" stroke="#AECBE3" stroke-width="0.5" stroke-miterlimit="10"/>
<path d="M40.8845 12.1622L33.5393 7.9563" stroke="#AECBE3" stroke-width="0.5" stroke-miterlimit="10"/>
<path d="M53.7921 18.2141L44.4294 12.8542" stroke="#AECBE3" stroke-width="0.5" stroke-miterlimit="10"/>
<path d="M58.8075 21.0863L55.1592 18.9973" stroke="#AECBE3" stroke-width="0.5" stroke-miterlimit="10"/>
<path d="M32.3288 5.92806L28.6703 3.83398" stroke="#AECBE3" stroke-width="0.5" stroke-miterlimit="10"/>
<path d="M43.0596 12.071L33.6982 6.71118" stroke="#AECBE3" stroke-width="0.5" stroke-miterlimit="10"/>
<path d="M53.784 16.8716L46.7744 12.8594" stroke="#AECBE3" stroke-width="0.5" stroke-miterlimit="10"/>
<path d="M56.3049 18.3152L54.9829 17.5586" stroke="#AECBE3" stroke-width="0.5" stroke-miterlimit="10"/>
<path d="M59.9769 20.4168L57.5051 19.0022" stroke="#AECBE3" stroke-width="0.5" stroke-miterlimit="10"/>
<path d="M45.5751 12.1724L44.2531 11.4158" stroke="#AECBE3" stroke-width="0.5" stroke-miterlimit="10"/>
<path d="M32.3213 4.58422L29.8394 3.16455" stroke="#AECBE3" stroke-width="0.5" stroke-miterlimit="10"/>
<path d="M34.8435 6.02789L33.5215 5.27124" stroke="#AECBE3" stroke-width="0.5" stroke-miterlimit="10"/>
<path d="M43.0518 10.7273L36.0436 6.71631" stroke="#AECBE3" stroke-width="0.5" stroke-miterlimit="10"/>
<path d="M53.7748 15.5305L49.1184 12.8645" stroke="#AECBE3" stroke-width="0.5" stroke-miterlimit="10"/>
<path d="M47.9174 12.1771L44.2449 10.0742" stroke="#AECBE3" stroke-width="0.5" stroke-miterlimit="10"/>
<path d="M61.1445 19.7488L59.8506 19.0073" stroke="#AECBE3" stroke-width="0.5" stroke-miterlimit="10"/>
<path d="M58.6486 18.3205L54.9761 16.2175" stroke="#AECBE3" stroke-width="0.5" stroke-miterlimit="10"/>
<path d="M32.3125 3.24287L31.0071 2.49634" stroke="#AECBE3" stroke-width="0.5" stroke-miterlimit="10"/>
<path d="M43.0446 9.38718L38.3882 6.72119" stroke="#AECBE3" stroke-width="0.5" stroke-miterlimit="10"/>
<path d="M37.1858 6.03286L33.5132 3.92993" stroke="#AECBE3" stroke-width="0.5" stroke-miterlimit="10"/>
<path d="M53.7672 14.1866L51.4639 12.8682" stroke="#AECBE3" stroke-width="0.5" stroke-miterlimit="10"/>
<path d="M50.2632 12.1809L44.2362 8.73047" stroke="#AECBE3" stroke-width="0.5" stroke-miterlimit="10"/>
<path d="M62.3138 19.0795L62.1964 19.0125" stroke="#AECBE3" stroke-width="0.5" stroke-miterlimit="10"/>
<path d="M60.9952 18.3243L54.9669 14.8738" stroke="#AECBE3" stroke-width="0.5" stroke-miterlimit="10"/>
<path d="M32.305 1.90054L32.1761 1.82715" stroke="#AECBE3" stroke-width="0.5" stroke-miterlimit="10"/>
<path d="M43.0365 8.04354L40.7332 6.7251" stroke="#AECBE3" stroke-width="0.5" stroke-miterlimit="10"/>
<path d="M39.5315 6.03812L33.5045 2.58765" stroke="#AECBE3" stroke-width="0.5" stroke-miterlimit="10"/>
<path d="M23.484 18.2493L22.5997 18.248L22.5677 12.811L23.3296 12.8123L25.675 12.8174L28.0192 12.8224L32.3719 12.8313L32.3872 15.3227L32.3936 16.6639L32.4025 18.0064L32.4038 18.267L30.5165 18.2632L28.1723 18.2582L23.484 18.2493Z" stroke="#AECBE3" stroke-width="0.5" stroke-miterlimit="10"/>
<path d="M32.4353 23.3738L32.443 24.5645L29.8334 24.5594L27.488 24.5556L22.7996 24.5455H22.6388L22.6375 24.4531L22.6299 23.1106L22.621 21.7694L22.6044 18.9326L24.6831 18.9364L27.0273 18.9415L29.374 18.9465L31.7169 18.9516L32.4085 18.9529L32.4111 19.3489L32.4187 20.6901L32.4277 22.0326L32.4353 23.3738Z" stroke="#AECBE3" stroke-width="0.5" stroke-miterlimit="10"/>
<path d="M33.5698 13.3247L33.5673 12.8325L43.0652 12.8515L43.0677 13.412L43.0767 14.7532L43.0843 16.097L43.0932 17.4382L43.0983 18.2885L39.8954 18.2822L37.5486 18.2771L35.2058 18.2733L33.6017 18.2695L33.5966 17.3522L33.5877 16.0097L33.5787 14.6659L33.5698 13.3247Z" stroke="#AECBE3" stroke-width="0.5" stroke-miterlimit="10"/>
<path d="M43.1023 18.9743L43.1099 20.1219L43.1176 21.4657L43.1252 22.8069L43.1342 24.1494L43.1367 24.5859L33.6388 24.5669L33.6363 24.0621L33.6197 21.3771L33.612 20.0359L33.6044 18.9553H34.0612L36.4067 18.9604L38.7495 18.9654L41.0963 18.9692L43.1023 18.9743Z" stroke="#AECBE3" stroke-width="0.5" stroke-miterlimit="10"/>
<path d="M32.8914 0.0732422L0.631958 18.5403L33.1186 37.1377L65.378 18.6706L32.8914 0.0732422ZM62.4303 19.0123H62.1967L59.8513 19.0072L57.5071 19.0022L55.1617 18.9971H54.9945L55.0022 20.2421L55.0098 21.5834L55.0175 22.9259L55.02 23.2536L53.8269 23.9368L53.8243 23.58L53.8167 22.2388L53.809 20.8963L53.8014 19.5551L53.7975 18.9958L52.8201 18.9933L50.4772 18.9882L48.1317 18.9832L45.7888 18.9781L44.3022 18.9756L44.3303 23.494L44.3366 24.5885L52.6644 24.6049L51.4712 25.2882L49.7932 25.2844L47.4503 25.2793L45.1048 25.2743H44.343L44.3481 26.1777L44.3558 27.5189L44.3634 28.8614L44.366 29.3548L43.1741 30.0368L43.1448 25.2692H42.7594L40.4165 25.2641L33.6481 25.2502V25.4033L33.6571 26.7445L33.6647 28.087L33.6724 29.4282L33.68 30.7707V30.8631H33.8408L36.1863 30.8681L38.5292 30.8732L40.8746 30.8783H41.699L40.5071 31.5628L33.6839 31.5489L33.6877 32.1132L33.6954 33.4544L33.703 34.7969L33.7068 35.4536L33.1109 35.7952L32.5111 35.4523L32.5035 34.1111L32.4958 32.7686L32.4882 31.5464L25.6649 31.5324L24.4641 30.8454L26.8083 30.8504L29.1538 30.8555L32.4843 30.8618L32.4792 30.0849L32.4716 28.7424L32.4627 27.4L32.455 26.0575L32.4499 25.2489L28.6918 25.2414L26.3489 25.2363L24.0035 25.2312L22.647 25.2287L22.6585 27.1355L22.6661 28.478L22.6738 29.8192L21.4743 29.1322L21.4666 27.7909L21.459 26.4484L21.4513 25.2262L14.6281 25.2122L13.4273 24.5252L15.7702 24.5303L18.1143 24.534L21.4449 24.5404L21.4398 23.7635L21.4322 22.421L21.4245 21.0798L21.4117 18.9288L20.0004 18.9262L17.6549 18.9212L15.3108 18.9161L12.9653 18.9111L11.6089 18.9085L11.6203 20.8153L11.628 22.1578L11.6356 23.499L10.4349 22.812L10.4106 18.906L8.27571 18.9022L5.93027 18.8971L3.58737 18.8921L2.9774 18.5428L3.56313 18.2075L4.73075 18.2101L7.07619 18.2151L9.42036 18.2202L10.4068 18.2227L10.3825 14.3054L11.5744 13.6234L11.5769 14.1067L11.5846 15.4492L11.6012 18.1342V18.2265H11.762L14.1074 18.2316L16.4503 18.2366L21.4066 18.2468L21.399 17.0561L21.3824 14.3711L21.3747 13.0299V12.8098L13.0253 12.7933L14.2172 12.1113H15.0977L17.4431 12.1176L19.786 12.1227L21.3671 12.1252L21.3645 11.6887L21.3569 10.3462L21.3492 9.005L21.3428 8.03199L22.5347 7.34999L22.564 12.129L24.4756 12.1328L32.3669 12.148L32.3542 9.95525L32.3465 8.61276L32.3389 7.27154L32.335 6.71228L31.3576 6.70975L29.0147 6.70469L26.6692 6.69963L23.6832 6.6933L24.875 6.0113H25.4697L27.8151 6.01763L30.158 6.02142L32.3338 6.02522V5.92906L32.3248 4.58657L32.3172 3.24535L32.3095 1.90287V1.75609L32.9029 1.41573L33.5039 1.75989L33.509 2.58993L33.5167 3.93241L33.5295 6.02775L37.1905 6.03534L39.536 6.0404L40.9856 6.04293L42.1864 6.72999L40.7368 6.72746L38.3913 6.7224L36.0485 6.71734L33.5358 6.71228L33.5435 7.9586L33.5512 9.29982L33.5588 10.6423L33.5665 11.9835V12.1493L38.5458 12.1594L40.8886 12.1645L43.0644 12.1683V12.0721L43.0554 10.7296L43.0478 9.38839L43.0401 8.04591L43.035 7.21587L44.2345 7.90293L44.2601 12.1708L45.577 12.1733L47.9199 12.1784L50.2653 12.1834L51.715 12.186L52.9158 12.873L44.4311 12.8566H44.2639L44.2716 14.1016L44.2792 15.4429L44.2971 18.2923H44.5855L46.9296 18.2974L49.2751 18.3024L51.618 18.3075L53.7937 18.3113L53.7631 13.3589L54.9639 14.046L54.969 14.876L54.9766 16.2185L54.9843 17.5597L54.9894 18.3138L62.4456 18.329L63.0364 18.6668L62.4303 19.0135V19.0123Z" stroke="#AECBE3" stroke-width="0.5" stroke-miterlimit="10"/>
<path d="M63.0364 18.6658L65.3767 18.6709L65.378 23.255L33.1173 42.9267L0.631958 23.6473V18.5405L2.97358 18.5456" stroke="#AECBE3" stroke-width="0.5" stroke-miterlimit="10"/>
<path d="M32.8998 1.4132L32.891 0.0732422" stroke="#AECBE3" stroke-width="0.5" stroke-miterlimit="10"/>
<path d="M33.1094 35.7979L33.1169 37.1378" stroke="#AECBE3" stroke-width="0.5" stroke-miterlimit="10"/>
<path d="M48.9713 10.6147L48.9331 10.6362C48.6932 10.7741 48.3001 10.7728 48.0589 10.6349L46.9296 9.98835C46.6871 9.84916 46.6871 9.62647 46.927 9.48855L46.9653 9.46704" stroke="#AECBE3" stroke-width="0.5" stroke-miterlimit="10"/>
<path d="M17.0398 26.5979L17.0781 26.5763C17.318 26.4384 17.7097 26.4384 17.9509 26.5763L19.0803 27.2229C19.3227 27.3621 19.324 27.5861 19.0828 27.724L19.0445 27.7455" stroke="#AECBE3" stroke-width="0.5" stroke-miterlimit="10"/>
<path d="M46.8592 27.9265L46.8196 27.9037C46.5772 27.7645 46.5772 27.5418 46.8171 27.4039L47.9375 26.7624C48.1774 26.6245 48.5691 26.6245 48.8103 26.7624L48.8499 26.7852" stroke="#AECBE3" stroke-width="0.5" stroke-miterlimit="10"/>
<path d="M18.715 9.53394L18.7546 9.55671C18.997 9.69589 18.9983 9.91985 18.7571 10.0578L17.6367 10.6993C17.3968 10.8372 17.0038 10.8359 16.7626 10.698L16.723 10.6752" stroke="#AECBE3" stroke-width="0.5" stroke-miterlimit="10"/>
<path d="M57.5055 19.002L59.8497 19.0071L62.1951 19.0122H62.4287L63.0348 18.6655L62.444 18.3276L54.9878 18.3125L54.9827 17.5583L54.975 16.2171L54.9674 14.8746L54.9623 14.0446L53.7615 13.3575L53.7921 18.3099L51.6164 18.3061L49.2735 18.3011L46.928 18.296L44.5839 18.2909H44.2955L44.2776 15.4402L44.27 14.099L44.2623 12.8527H44.4295L52.9142 12.8704L51.7134 12.1833L50.2637 12.1808L47.9183 12.1757L45.5754 12.1707L44.2585 12.1681L44.233 7.90029L43.0334 7.21323L43.0385 8.04327L43.0462 9.38575L43.0539 10.727L43.0615 12.0695V12.1656L40.8858 12.1618L38.5429 12.1568L33.5649 12.1466V11.9809L33.5559 10.6397L33.5483 9.29718L33.5406 7.95596L33.533 6.70964L36.0456 6.7147L38.3885 6.71976L40.7339 6.72482L42.1836 6.72735L40.9828 6.04029L39.5331 6.03776L37.1877 6.0327L33.5266 6.02511L33.5138 3.92977L33.5062 2.58729L33.5011 1.75725L32.9 1.41309L32.3054 1.75345V1.90023L32.3143 3.24271L32.322 4.58393L32.3296 5.92642V6.02258L30.1539 6.01878L27.811 6.01499L25.4656 6.00993H24.8709L23.679 6.69066L26.6651 6.69698L29.0105 6.70205L31.3534 6.70711L32.3309 6.70964L32.3347 7.2689L32.3424 8.61012L32.35 9.95261L32.3628 12.1454L24.4715 12.1302L22.5599 12.1264L22.5306 7.34735L21.3387 8.02935L21.3451 9.00236L21.3527 10.3436L21.3604 11.6861L21.3629 12.1226L19.7819 12.1201L17.439 12.115L15.0935 12.1099H14.213L13.0212 12.7907L21.3693 12.8071V13.0273L21.3783 14.3685L21.3948 17.0535L21.4025 18.2441L16.4462 18.234L14.1033 18.2289L11.7578 18.2239H11.5971V18.1315L11.5805 15.4465L11.5728 14.1041L11.5703 13.6207L10.3784 14.3027L10.4026 18.2201L9.41622 18.2176L7.07206 18.2125L4.72661 18.2074L3.55899 18.2049L2.97327 18.5402L3.58324 18.8894L5.92613 18.8945L8.27158 18.8996L10.4065 18.9033L10.4307 22.8093L11.6315 23.4964L11.6239 22.1552L11.6162 20.8127L11.6047 18.9059L12.9612 18.9084L15.3066 18.9135L17.6508 18.9185L19.9963 18.9236L21.4076 18.9261L21.4204 21.0771L21.428 22.4184L21.4357 23.7608L21.4408 24.5377L18.1102 24.5314L15.766 24.5276L13.4231 24.5226L14.6239 25.2096L21.4472 25.2235L21.4548 26.4458L21.4625 27.7883L21.4701 29.1295L22.6697 29.8166L22.662 28.4754L22.6543 27.1329L22.6429 25.2261L23.9993 25.2286L26.3448 25.2336L28.6877 25.2387L32.4457 25.2463L32.4509 26.0548L32.4585 27.3973L32.4674 28.7398L32.4751 30.0823L32.4802 30.8592L29.1496 30.8529L26.8042 30.8478L24.46 30.8427L25.6608 31.5298L32.484 31.5437L32.4917 32.766L32.4993 34.1085L32.507 35.4497L33.1068 35.7926L33.7027 35.451L33.6989 34.7943L33.6912 33.4518L33.6836 32.1106L33.6797 31.5462L40.503 31.5602L41.6948 30.8782H40.8705L38.525 30.8718L36.1821 30.8668L33.8367 30.8617H33.6759V30.7693L33.667 29.4269L33.6593 28.0856L33.6516 26.7432L33.644 25.4019V25.2488L40.4111 25.2628L42.754 25.2678H43.1393L43.1687 30.0355L44.3606 29.3535L44.358 28.86L44.3504 27.5175L44.3427 26.1763L44.3376 25.2716H45.0994L47.4449 25.2779L49.7878 25.283L51.4658 25.2868L52.6589 24.6035L44.3312 24.5871L44.3248 23.4926L44.2968 18.9742L45.7834 18.9767L48.1263 18.9818L50.4717 18.9869L52.8146 18.9919L53.7921 18.9944L53.7959 19.5537L53.8036 20.8949L53.8113 22.2374L53.8189 23.5786L53.8215 23.9355L55.0146 23.2522L55.0121 22.9245L55.0044 21.582L54.9967 20.2408L54.9891 18.9944H55.1562L57.5017 18.9995L57.5055 19.002ZM43.0641 12.8527L43.0679 13.4119L43.0755 14.7532L43.0832 16.0956L43.0909 17.4369L43.096 18.2884L39.893 18.2821L37.5463 18.277L35.2034 18.272L33.5993 18.2682L33.5942 17.3508L33.5866 16.0096L33.5776 14.6659L33.57 13.3246L33.5674 12.8324L43.0653 12.8514L43.0641 12.8527ZM22.5995 18.2479L22.5663 12.8109H23.3281L25.6736 12.8172L28.0177 12.8223L32.3705 12.8312L32.3858 15.3225L32.3934 16.6638L32.4011 18.0062V18.2669L30.515 18.2631L28.1721 18.258L23.4825 18.2492H22.5995V18.2479ZM29.8323 24.558L27.4882 24.5542L22.7985 24.5453H22.6378V24.453L22.6288 23.1105L22.6212 21.7693L22.6033 18.9325L24.682 18.9362L27.0249 18.9413L29.3717 18.9464L31.7146 18.9514H32.4062L32.4087 19.3487L32.4164 20.69L32.4241 22.0324L32.4317 23.3737L32.4394 24.5643L29.8298 24.5592L29.8323 24.558ZM43.1087 20.1206L43.1164 21.4631L43.124 22.8043L43.1317 24.1468L43.1342 24.5833L33.6363 24.5643L33.6338 24.0582L33.6172 21.3732L33.6095 20.032L33.6032 18.9514H34.0587L36.4042 18.9565L38.7471 18.9616L41.0925 18.9666L43.0985 18.9704L43.1049 20.1193L43.1087 20.1206Z" stroke="#AECBE3" stroke-width="0.5" stroke-miterlimit="10"/>
<path d="M25.4653 6.01014L24.8706 6.00887L32.3038 1.75366L32.3051 1.90044L32.3127 3.24292L32.3204 4.58414L32.3293 5.92789V6.02279L30.1536 6.01899L27.8107 6.0152L25.4653 6.01014Z" stroke="#AECBE3" stroke-width="0.5" stroke-miterlimit="10"/>
<path d="M15.096 12.1114L14.2155 12.1089L21.3411 8.02954L21.3475 9.00256L21.3564 10.345L21.3641 11.6875L21.3666 12.1241L19.7856 12.1203L17.4414 12.1152L15.096 12.1114Z" stroke="#AECBE3" stroke-width="0.5" stroke-miterlimit="10"/>
<path d="M7.07239 18.2165L4.72694 18.2114L3.55933 18.2101L10.3787 14.3054L10.403 18.2228L9.41656 18.2215L7.07239 18.2165Z" stroke="#AECBE3" stroke-width="0.5" stroke-miterlimit="10"/>
<path d="M10.4311 22.8147L3.58362 18.8948L5.92651 18.8986L8.27323 18.9036L10.4069 18.9074L10.4311 22.8147Z" stroke="#AECBE3" stroke-width="0.5" stroke-miterlimit="10"/>
<path d="M33.5051 2.58761L33.5 1.75757L40.9817 6.04061L39.5321 6.03808L37.1866 6.03302L33.5268 6.02543L33.514 3.93009L33.5051 2.58761Z" stroke="#AECBE3" stroke-width="0.5" stroke-miterlimit="10"/>
<path d="M22.533 7.34761L23.6789 6.69092L26.6662 6.69724L29.0116 6.70231L31.3545 6.7061L32.3333 6.70863L32.3359 7.26789L32.3448 8.61038L32.3524 9.95286L32.3665 12.1456L24.4739 12.1304L22.5623 12.1254L22.533 7.34761Z" stroke="#AECBE3" stroke-width="0.5" stroke-miterlimit="10"/>
<path d="M11.5731 14.1069L11.5706 13.6235L13.024 12.7922L21.3709 12.8087L21.3722 13.0288L21.3811 14.3701L21.3977 17.055L21.4041 18.2457L16.449 18.2356L14.1049 18.2305L11.7594 18.2254H11.5986V18.1331L11.582 15.4494L11.5731 14.1069Z" stroke="#AECBE3" stroke-width="0.5" stroke-miterlimit="10"/>
<path d="M32.3719 12.8313L32.3872 15.3227L32.3936 16.6639L32.4025 18.0064L32.4038 18.267L30.5165 18.2632L28.1723 18.2582L23.484 18.2493L22.5997 18.248L22.5677 12.811L23.3296 12.8123L25.675 12.8174L28.0192 12.8224L32.3719 12.8313Z" stroke="#AECBE3" stroke-width="0.5" stroke-miterlimit="10"/>
<path d="M38.3888 6.7213L40.7342 6.7251L42.1838 6.7289L43.0324 7.21477L43.0375 8.04354L43.0452 9.38729L43.0529 10.7272L43.0605 12.071V12.1659L40.8848 12.1621L38.5419 12.157L33.5639 12.1469L33.5626 11.9824L33.555 10.6412L33.5473 9.29872L33.5396 7.95624L33.532 6.71118L36.0446 6.71624L38.3888 6.7213Z" stroke="#AECBE3" stroke-width="0.5" stroke-miterlimit="10"/>
<path d="M18.1115 24.5367L15.766 24.5316L13.4231 24.5279L11.6302 23.5017L11.6226 22.1592L11.6137 20.8167L11.6022 18.9099L12.9587 18.9124L15.3054 18.9175L17.6495 18.9226L19.995 18.9276L21.4076 18.9302L21.4204 21.0812L21.428 22.4237L21.437 23.7661L21.4408 24.543L18.1115 24.5367Z" stroke="#AECBE3" stroke-width="0.5" stroke-miterlimit="10"/>
<path d="M21.4611 27.7925L21.4688 29.1337L14.6226 25.2151L21.4471 25.2277L21.4534 26.45L21.4611 27.7925Z" stroke="#AECBE3" stroke-width="0.5" stroke-miterlimit="10"/>
<path d="M44.2317 7.90186L51.7134 12.1849L50.2638 12.1811L47.9183 12.1773L45.5754 12.1722L44.2585 12.1697L44.2317 7.90186Z" stroke="#AECBE3" stroke-width="0.5" stroke-miterlimit="10"/>
<path d="M33.5698 13.3247L33.5673 12.8325L43.0652 12.8515L43.0677 13.412L43.0767 14.7532L43.0843 16.097L43.0932 17.4382L43.0983 18.2885L39.8954 18.2822L37.5486 18.2771L35.2058 18.2733L33.6017 18.2695L33.5966 17.3522L33.5877 16.0097L33.5787 14.6659L33.5698 13.3247Z" stroke="#AECBE3" stroke-width="0.5" stroke-miterlimit="10"/>
<path d="M22.6044 18.9326L24.6831 18.9364L27.0273 18.9415L29.374 18.9465L31.7169 18.9516L32.4085 18.9529L32.4111 19.3489L32.4187 20.6901L32.4277 22.0326L32.4353 23.3738L32.443 24.5645L29.8334 24.5594L27.488 24.5556L22.7996 24.5455H22.6388L22.6375 24.4531L22.6299 23.1106L22.621 21.7694L22.6044 18.9326Z" stroke="#AECBE3" stroke-width="0.5" stroke-miterlimit="10"/>
<path d="M33.6363 24.0621L33.6197 21.3771L33.612 20.0359L33.6044 18.9553H34.0612L36.4067 18.9604L38.7495 18.9654L41.0963 18.9692L43.1023 18.9743L43.1099 20.1219L43.1176 21.4657L43.1252 22.8069L43.1342 24.1494L43.1367 24.5859L33.6388 24.5669L33.6363 24.0621Z" stroke="#AECBE3" stroke-width="0.5" stroke-miterlimit="10"/>
<path d="M52.9147 12.872L53.7633 13.3578L53.7926 18.3102L51.6169 18.3052L49.274 18.3014L46.9273 18.2963L44.5844 18.2912H44.296L44.2781 15.4418L44.2705 14.0993L44.2628 12.8542H44.43L52.9147 12.872Z" stroke="#AECBE3" stroke-width="0.5" stroke-miterlimit="10"/>
<path d="M29.1509 30.8568L26.8054 30.8517L24.4625 30.8467L22.6696 29.8205L22.662 28.4793L22.6543 27.1368L22.6428 25.23L23.9993 25.2325L26.3447 25.2376L28.6889 25.2426L32.4457 25.2502L32.4508 26.0588L32.4598 27.4012L32.4687 28.7437L32.4763 30.0862L32.4814 30.8631L29.1509 30.8568Z" stroke="#AECBE3" stroke-width="0.5" stroke-miterlimit="10"/>
<path d="M32.5022 34.1126L32.5098 35.4538L25.6624 31.5339L32.4856 31.5479L32.4932 32.7701L32.5022 34.1126Z" stroke="#AECBE3" stroke-width="0.5" stroke-miterlimit="10"/>
<path d="M54.9679 14.8737L54.9628 14.0449L62.4445 18.328L54.9896 18.3128L54.9845 17.5587L54.9768 16.2174L54.9679 14.8737Z" stroke="#AECBE3" stroke-width="0.5" stroke-miterlimit="10"/>
<path d="M43.1706 30.0381L41.698 30.8808L40.8736 30.8795L38.5282 30.8745L36.1853 30.8707L33.8386 30.8656H33.6778V30.7732L33.6688 29.4308L33.6612 28.0883L33.6535 26.7458L33.6446 25.4046L33.6433 25.2515L40.4129 25.2654L42.7558 25.2704H43.1412L43.1706 30.0381Z" stroke="#AECBE3" stroke-width="0.5" stroke-miterlimit="10"/>
<path d="M53.8244 23.5813L53.8257 23.9381L52.6607 24.6049L44.3329 24.5885L44.3265 23.494L44.2985 18.9756L45.7851 18.9794L48.1293 18.9844L50.4747 18.9882L52.8189 18.9933L53.7964 18.9946L53.8002 19.5551L53.8079 20.8963L53.8155 22.2401L53.8244 23.5813Z" stroke="#AECBE3" stroke-width="0.5" stroke-miterlimit="10"/>
<path d="M62.4301 19.0125L55.0186 23.2551L55.0173 22.9273L55.0084 21.5849L55.0007 20.2424L54.993 18.9973H55.1602L57.5057 19.0024L59.8511 19.0074L62.1965 19.0125H62.4301Z" stroke="#AECBE3" stroke-width="0.5" stroke-miterlimit="10"/>
<path d="M49.7888 25.2845L51.4669 25.2883L44.3616 29.3563L44.3578 28.8628L44.3502 27.5203L44.3438 26.1791L44.3374 25.2744L45.0992 25.2757L47.4459 25.2807L49.7888 25.2845Z" stroke="#AECBE3" stroke-width="0.5" stroke-miterlimit="10"/>
<path d="M40.5055 31.5642L33.7052 35.4563L33.7014 34.7996L33.6937 33.4571L33.6848 32.1146L33.6823 31.5503L40.5055 31.5642Z" stroke="#AECBE3" stroke-width="0.5" stroke-miterlimit="10"/>
<path d="M31.0615 2.51538L30.731 3.66427" stroke="#AECBE3" stroke-width="0.5" stroke-miterlimit="10"/>
<path d="M29.8926 3.24292L29.5634 4.39055" stroke="#AECBE3" stroke-width="0.5" stroke-miterlimit="10"/>
<path d="M28.7249 3.88818L28.3956 5.03708" stroke="#AECBE3" stroke-width="0.5" stroke-miterlimit="10"/>
<path d="M27.5558 4.54126L27.2266 5.68889" stroke="#AECBE3" stroke-width="0.5" stroke-miterlimit="10"/>
<path d="M23.9913 6.69092L23.7144 7.65634" stroke="#AECBE3" stroke-width="0.5" stroke-miterlimit="10"/>
<path d="M22.9022 7.23242L22.5398 8.34715" stroke="#AECBE3" stroke-width="0.5" stroke-miterlimit="10"/>
<path d="M20.5234 8.57495L20.1597 9.68968" stroke="#AECBE3" stroke-width="0.5" stroke-miterlimit="10"/>
<path d="M15.8851 11.189L15.5814 12.124" stroke="#AECBE3" stroke-width="0.5" stroke-miterlimit="10"/>
<path d="M13.4531 12.7922L13.1494 13.726" stroke="#AECBE3" stroke-width="0.5" stroke-miterlimit="10"/>
<path d="M12.3883 13.1958L12.0106 14.3561" stroke="#AECBE3" stroke-width="0.5" stroke-miterlimit="10"/>
<path d="M10.0745 14.5332L9.69678 15.6935" stroke="#AECBE3" stroke-width="0.5" stroke-miterlimit="10"/>
<path d="M8.88578 15.2012L8.50806 16.3627" stroke="#AECBE3" stroke-width="0.5" stroke-miterlimit="10"/>
<path d="M7.71671 15.8706L7.33899 17.0322" stroke="#AECBE3" stroke-width="0.5" stroke-miterlimit="10"/>
<path d="M6.56827 16.5388L6.19055 17.7004" stroke="#AECBE3" stroke-width="0.5" stroke-miterlimit="10"/>
<path d="M5.37403 17.208L5.0448 18.2215" stroke="#AECBE3" stroke-width="0.5" stroke-miterlimit="10"/>
<path d="M4.20088 17.8762L4.08093 18.2457" stroke="#AECBE3" stroke-width="0.5" stroke-miterlimit="10"/>
<path d="M19.3923 9.2063L19.0299 10.321" stroke="#AECBE3" stroke-width="0.5" stroke-miterlimit="10"/>
<path d="M17.0076 10.7751L16.723 11.652" stroke="#AECBE3" stroke-width="0.5" stroke-miterlimit="10"/>
<path d="M18.0786 10.4451L17.877 11.0663" stroke="#AECBE3" stroke-width="0.5" stroke-miterlimit="10"/>
<path d="M26.3885 5.23462L26.1652 6.01025" stroke="#AECBE3" stroke-width="0.5" stroke-miterlimit="10"/>
<path d="M32.2288 1.92212L31.8995 3.06975" stroke="#AECBE3" stroke-width="0.5" stroke-miterlimit="10"/>
</g>
<defs>
<clipPath id="clip0_218_524">
<rect width="65" height="43" fill="white" transform="translate(0.50415)"/>
</clipPath>
</defs>
</svg>
