<svg width="224" height="131" viewBox="0 0 224 131" fill="none" xmlns="http://www.w3.org/2000/svg">
<g opacity="0.5" clip-path="url(#clip0_1_4435)">
<path d="M5.16935 50.9182L138.252 127.189L218.547 81.0298L85.4645 5.00049L5.16935 50.9182Z" stroke="#AECBE3" stroke-width="0.854626" stroke-miterlimit="10"/>
<path d="M53.8745 23.066L186.562 99.419L189.309 97.8419L56.6808 21.4595L53.8745 23.066Z" stroke="#AECBE3" stroke-width="0.854626" stroke-miterlimit="10"/>
<path d="M44.2622 28.5622L47.1394 26.9204L179.779 103.315L176.985 104.921L44.2622 28.5622Z" stroke="#AECBE3" stroke-width="0.854626" stroke-miterlimit="10"/>
<path d="M34.8628 33.9345L167.384 110.441L170.114 108.875L37.031 32.6987L34.8628 33.9345Z" stroke="#AECBE3" stroke-width="0.854626" stroke-miterlimit="10"/>
<path d="M201.604 81.2175L207.039 78.0986L212.415 81.3116L207.204 84.3363L201.604 81.2175Z" stroke="#AECBE3" stroke-width="0.854626" stroke-miterlimit="10"/>
<path d="M80.0117 11.3552L85.453 8.23633L90.8292 11.4493L85.6184 14.474L80.0117 11.3552Z" stroke="#AECBE3" stroke-width="0.854626" stroke-miterlimit="10"/>
<path d="M11.2842 50.7531L16.7195 47.6343L22.0958 50.8473L16.8849 53.872L11.2842 50.7531Z" stroke="#AECBE3" stroke-width="0.854626" stroke-miterlimit="10"/>
<path d="M133.142 120.486L138.583 117.367L143.96 120.58L138.749 123.611L133.142 120.486Z" stroke="#AECBE3" stroke-width="0.854626" stroke-miterlimit="10"/>
<path d="M125.456 37.8778L160.561 58.5623L166.989 54.7902L131.718 34.2646L125.456 37.8778Z" stroke="#AECBE3" stroke-width="0.854626" stroke-miterlimit="10"/>
<path d="M133.751 40.9786L154.884 53.3128C155.87 53.8895 157.087 53.8836 158.068 53.3128L158.163 53.2598C159.013 52.7596 159.007 51.5356 158.157 51.0413L136.912 38.766C135.937 38.2011 134.737 38.2011 133.763 38.766C132.906 39.2603 132.906 40.4902 133.763 40.9845L133.751 40.9786Z" stroke="#AECBE3" stroke-width="0.854626" stroke-miterlimit="10"/>
<path d="M167.65 57.2027L168.754 57.797C168.884 57.8677 169.05 57.8618 169.174 57.7853L169.197 57.7735C169.481 57.6028 169.469 57.185 169.174 57.0379L168.045 56.4612C167.915 56.3965 167.762 56.3965 167.638 56.473C167.354 56.6378 167.36 57.0556 167.65 57.2086V57.2027Z" stroke="#AECBE3" stroke-width="0.854626" stroke-miterlimit="10"/>
<path d="M174.597 61.0865L175.702 61.6808C175.832 61.7515 175.998 61.7456 176.122 61.6691L176.145 61.6573C176.429 61.4866 176.417 61.0688 176.122 60.9217L174.993 60.345C174.863 60.2803 174.71 60.2803 174.586 60.3568C174.302 60.5216 174.308 60.9394 174.597 61.0924V61.0865Z" stroke="#AECBE3" stroke-width="0.854626" stroke-miterlimit="10"/>
<path d="M181.327 64.8111L182.432 65.4054C182.562 65.4761 182.727 65.4702 182.851 65.3937L182.875 65.3819C183.158 65.2112 183.146 64.7934 182.851 64.6463L181.723 64.0696C181.593 64.0049 181.439 64.0049 181.315 64.0814C181.031 64.2462 181.037 64.664 181.327 64.817V64.8111Z" stroke="#AECBE3" stroke-width="0.854626" stroke-miterlimit="10"/>
<path d="M188.298 68.7188L189.403 69.3132C189.533 69.3838 189.698 69.3779 189.822 69.3014L189.846 69.2896C190.13 69.119 190.118 68.7012 189.822 68.554L188.694 67.9773C188.564 67.9126 188.41 67.9126 188.286 67.9891C188.003 68.1539 188.009 68.5717 188.298 68.7247V68.7188Z" stroke="#AECBE3" stroke-width="0.854626" stroke-miterlimit="10"/>
<path d="M195.027 72.6265L196.132 73.2209C196.262 73.2915 196.427 73.2856 196.551 73.2091L196.575 73.1973C196.858 73.0267 196.847 72.6089 196.551 72.4618L195.423 71.8851C195.293 71.8203 195.139 71.8203 195.015 71.8968C194.732 72.0616 194.738 72.4794 195.027 72.6324V72.6265Z" stroke="#AECBE3" stroke-width="0.854626" stroke-miterlimit="10"/>
<path d="M201.821 76.5689L202.926 77.1633C203.056 77.2339 203.222 77.228 203.346 77.1515L203.369 77.1397C203.653 76.9691 203.641 76.5512 203.346 76.4041L202.217 75.8274C202.087 75.7627 201.934 75.7627 201.81 75.8392C201.526 76.004 201.532 76.4218 201.821 76.5748V76.5689Z" stroke="#AECBE3" stroke-width="0.854626" stroke-miterlimit="10"/>
<path d="M164.241 59.0328L165.346 59.6271C165.476 59.6977 165.641 59.6919 165.765 59.6154L165.789 59.6036C166.072 59.4329 166.061 59.0151 165.765 58.868L164.637 58.2913C164.507 58.2266 164.353 58.2266 164.229 58.3031C163.945 58.4678 163.951 58.8857 164.241 59.0387V59.0328Z" stroke="#AECBE3" stroke-width="0.854626" stroke-miterlimit="10"/>
<path d="M171.189 62.9166L172.294 63.5109C172.424 63.5815 172.589 63.5756 172.713 63.4991L172.737 63.4874C173.021 63.3167 173.009 62.8989 172.713 62.7518L171.585 62.1751C171.455 62.1104 171.301 62.1104 171.177 62.1869C170.894 62.3516 170.9 62.7694 171.189 62.9224V62.9166Z" stroke="#AECBE3" stroke-width="0.854626" stroke-miterlimit="10"/>
<path d="M177.912 66.6417L179.017 67.236C179.147 67.3066 179.312 67.3007 179.436 67.2242L179.46 67.2125C179.743 67.0418 179.731 66.624 179.436 66.4769L178.308 65.9002C178.178 65.8355 178.024 65.8355 177.9 65.912C177.616 66.0767 177.622 66.4945 177.912 66.6475V66.6417Z" stroke="#AECBE3" stroke-width="0.854626" stroke-miterlimit="10"/>
<path d="M184.889 70.5489L185.994 71.1432C186.124 71.2138 186.29 71.208 186.414 71.1315L186.437 71.1197C186.721 70.949 186.709 70.5312 186.414 70.3841L185.285 69.8074C185.155 69.7427 185.002 69.7427 184.877 69.8192C184.594 69.984 184.6 70.4018 184.889 70.5548V70.5489Z" stroke="#AECBE3" stroke-width="0.854626" stroke-miterlimit="10"/>
<path d="M191.618 74.4566L192.723 75.0509C192.853 75.1216 193.019 75.1157 193.143 75.0392L193.166 75.0274C193.45 74.8568 193.438 74.4389 193.143 74.2918L192.014 73.7151C191.884 73.6504 191.731 73.6504 191.607 73.7269C191.323 73.8917 191.329 74.3095 191.618 74.4625V74.4566Z" stroke="#AECBE3" stroke-width="0.854626" stroke-miterlimit="10"/>
<path d="M198.413 78.399L199.518 78.9933C199.648 79.0639 199.813 79.0581 199.937 78.9816L199.961 78.9698C200.244 78.7991 200.232 78.3813 199.937 78.2342L198.809 77.6575C198.679 77.5928 198.525 77.5928 198.401 77.6693C198.117 77.8341 198.123 78.2519 198.413 78.4049V78.399Z" stroke="#AECBE3" stroke-width="0.854626" stroke-miterlimit="10"/>
<path d="M92.6486 14.1036L93.7534 14.6979C93.8834 14.7685 94.0488 14.7627 94.1728 14.6862L94.1965 14.6744C94.4801 14.5037 94.4682 14.0859 94.1728 13.9388L93.0444 13.3621C92.9145 13.2974 92.7608 13.2974 92.6368 13.3739C92.3532 13.5386 92.3591 13.9565 92.6486 14.1095V14.1036Z" stroke="#AECBE3" stroke-width="0.854626" stroke-miterlimit="10"/>
<path d="M99.5964 17.9874L100.701 18.5817C100.831 18.6523 100.997 18.6464 101.121 18.5699L101.144 18.5582C101.428 18.3875 101.416 17.9697 101.121 17.8226L99.9922 17.2459C99.8623 17.1812 99.7086 17.1812 99.5846 17.2577C99.301 17.4224 99.3069 17.8402 99.5964 17.9932V17.9874Z" stroke="#AECBE3" stroke-width="0.854626" stroke-miterlimit="10"/>
<path d="M106.326 21.712L107.431 22.3063C107.561 22.3769 107.726 22.3711 107.85 22.2945L107.874 22.2828C108.157 22.1121 108.146 21.6943 107.85 21.5472L106.722 20.9705C106.592 20.9058 106.438 20.9058 106.314 20.9823C106.03 21.147 106.036 21.5649 106.326 21.7179V21.712Z" stroke="#AECBE3" stroke-width="0.854626" stroke-miterlimit="10"/>
<path d="M113.297 25.6138L114.402 26.2082C114.532 26.2788 114.697 26.2729 114.821 26.1964L114.845 26.1846C115.129 26.014 115.117 25.5962 114.821 25.4491L113.693 24.8724C113.563 24.8076 113.409 24.8076 113.285 24.8841C113.002 25.0489 113.008 25.4667 113.297 25.6197V25.6138Z" stroke="#AECBE3" stroke-width="0.854626" stroke-miterlimit="10"/>
<path d="M120.026 29.5274L121.131 30.1218C121.261 30.1924 121.426 30.1865 121.55 30.11L121.574 30.0982C121.858 29.9276 121.846 29.5097 121.55 29.3626L120.422 28.7859C120.292 28.7212 120.138 28.7212 120.014 28.7977C119.731 28.9625 119.737 29.3803 120.026 29.5333V29.5274Z" stroke="#AECBE3" stroke-width="0.854626" stroke-miterlimit="10"/>
<path d="M126.82 33.4639L127.925 34.0583C128.055 34.1289 128.221 34.123 128.345 34.0465L128.368 34.0347C128.652 33.8641 128.64 33.4463 128.345 33.2992L127.216 32.7225C127.086 32.6577 126.933 32.6577 126.809 32.7342C126.525 32.899 126.531 33.3168 126.82 33.4698V33.4639Z" stroke="#AECBE3" stroke-width="0.854626" stroke-miterlimit="10"/>
<path d="M89.2399 15.9337L90.3447 16.528C90.4747 16.5986 90.6401 16.5927 90.7642 16.5162L90.7878 16.5045C91.0714 16.3338 91.0595 15.916 90.7642 15.7689L89.6357 15.1922C89.5058 15.1275 89.3522 15.1275 89.2281 15.204C88.9445 15.3687 88.9504 15.7865 89.2399 15.9395V15.9337Z" stroke="#AECBE3" stroke-width="0.854626" stroke-miterlimit="10"/>
<path d="M96.1818 19.8174L97.2866 20.4118C97.4166 20.4824 97.582 20.4765 97.7061 20.4L97.7297 20.3882C98.0133 20.2176 98.0015 19.7998 97.7061 19.6527L96.5776 19.076C96.4477 19.0112 96.2941 19.0112 96.17 19.0877C95.8864 19.2525 95.8923 19.6703 96.1818 19.8233V19.8174Z" stroke="#AECBE3" stroke-width="0.854626" stroke-miterlimit="10"/>
<path d="M102.911 23.5425L104.016 24.1369C104.146 24.2075 104.311 24.2016 104.435 24.1251L104.459 24.1133C104.742 23.9427 104.73 23.5249 104.435 23.3778L103.307 22.8011C103.177 22.7363 103.023 22.7363 102.899 22.8128C102.615 22.9776 102.621 23.3954 102.911 23.5484V23.5425Z" stroke="#AECBE3" stroke-width="0.854626" stroke-miterlimit="10"/>
<path d="M109.882 27.4498L110.987 28.0441C111.117 28.1147 111.283 28.1088 111.407 28.0323L111.43 28.0206C111.714 27.8499 111.702 27.4321 111.407 27.285L110.278 26.7083C110.148 26.6436 109.995 26.6436 109.871 26.7201C109.587 26.8848 109.593 27.3026 109.882 27.4556V27.4498Z" stroke="#AECBE3" stroke-width="0.854626" stroke-miterlimit="10"/>
<path d="M116.617 31.3575L117.722 31.9518C117.852 32.0224 118.018 32.0166 118.142 31.9401L118.165 31.9283C118.449 31.7576 118.437 31.3398 118.142 31.1927L117.013 30.616C116.883 30.5513 116.73 30.5513 116.606 30.6278C116.322 30.7926 116.328 31.2104 116.617 31.3634V31.3575Z" stroke="#AECBE3" stroke-width="0.854626" stroke-miterlimit="10"/>
<path d="M123.412 35.2999L124.517 35.8942C124.647 35.9648 124.812 35.9589 124.936 35.8824L124.96 35.8707C125.243 35.7 125.231 35.2822 124.936 35.1351L123.808 34.5584C123.678 34.4937 123.524 34.4937 123.4 34.5702C123.116 34.7349 123.122 35.1527 123.412 35.3057V35.2999Z" stroke="#AECBE3" stroke-width="0.854626" stroke-miterlimit="10"/>
<path d="M99.1769 96.524L100.282 97.1183C100.412 97.1889 100.577 97.1831 100.701 97.1066L100.725 97.0948C101.008 96.9241 100.997 96.5063 100.701 96.3592L99.5727 95.7825C99.4428 95.7178 99.2892 95.7178 99.1651 95.7943C98.8815 95.9591 98.8874 96.3769 99.1769 96.5299V96.524Z" stroke="#AECBE3" stroke-width="0.854626" stroke-miterlimit="10"/>
<path d="M106.125 100.408L107.23 101.002C107.359 101.073 107.525 101.067 107.649 100.99L107.673 100.979C107.956 100.808 107.944 100.39 107.649 100.243L106.521 99.6663C106.391 99.6016 106.237 99.6016 106.113 99.6781C105.829 99.8428 105.835 100.261 106.125 100.414V100.408Z" stroke="#AECBE3" stroke-width="0.854626" stroke-miterlimit="10"/>
<path d="M112.854 104.132L113.959 104.727C114.089 104.797 114.254 104.791 114.378 104.715L114.402 104.703C114.686 104.533 114.674 104.115 114.378 103.968L113.25 103.391C113.12 103.326 112.966 103.326 112.842 103.403C112.559 103.567 112.565 103.985 112.854 104.138V104.132Z" stroke="#AECBE3" stroke-width="0.854626" stroke-miterlimit="10"/>
<path d="M119.825 108.04L120.93 108.634C121.06 108.705 121.226 108.699 121.35 108.623L121.373 108.611C121.657 108.44 121.645 108.022 121.35 107.875L120.221 107.299C120.091 107.234 119.938 107.234 119.814 107.31C119.53 107.475 119.536 107.893 119.825 108.046V108.04Z" stroke="#AECBE3" stroke-width="0.854626" stroke-miterlimit="10"/>
<path d="M126.561 111.948L127.665 112.542C127.795 112.613 127.961 112.607 128.085 112.53L128.108 112.519C128.392 112.348 128.38 111.93 128.085 111.783L126.956 111.206C126.826 111.142 126.673 111.142 126.549 111.218C126.265 111.383 126.271 111.801 126.561 111.954V111.948Z" stroke="#AECBE3" stroke-width="0.854626" stroke-miterlimit="10"/>
<path d="M133.355 115.89L134.459 116.485C134.589 116.555 134.755 116.549 134.879 116.473L134.903 116.461C135.186 116.29 135.174 115.873 134.879 115.725L133.75 115.149C133.621 115.084 133.467 115.084 133.343 115.161C133.059 115.325 133.065 115.743 133.355 115.896V115.89Z" stroke="#AECBE3" stroke-width="0.854626" stroke-miterlimit="10"/>
<path d="M95.7682 98.3541L96.873 98.9484C97.003 99.019 97.1684 99.0131 97.2925 98.9366L97.3161 98.9249C97.5997 98.7542 97.5879 98.3364 97.2925 98.1893L96.1641 97.6126C96.0341 97.5479 95.8805 97.5479 95.7564 97.6244C95.4728 97.7891 95.4787 98.2069 95.7682 98.3599V98.3541Z" stroke="#AECBE3" stroke-width="0.854626" stroke-miterlimit="10"/>
<path d="M102.716 102.243L103.821 102.838C103.951 102.908 104.116 102.902 104.24 102.826L104.264 102.814C104.547 102.643 104.536 102.226 104.24 102.078L103.112 101.502C102.982 101.437 102.828 101.437 102.704 101.514C102.421 101.678 102.426 102.096 102.716 102.249V102.243Z" stroke="#AECBE3" stroke-width="0.854626" stroke-miterlimit="10"/>
<path d="M109.445 105.963L110.55 106.557C110.68 106.628 110.845 106.622 110.969 106.546L110.993 106.534C111.276 106.363 111.265 105.945 110.969 105.798L109.841 105.221C109.711 105.157 109.557 105.157 109.433 105.233C109.15 105.398 109.155 105.816 109.445 105.969V105.963Z" stroke="#AECBE3" stroke-width="0.854626" stroke-miterlimit="10"/>
<path d="M116.417 109.87L117.521 110.465C117.651 110.535 117.817 110.529 117.941 110.453L117.965 110.441C118.248 110.27 118.236 109.853 117.941 109.705L116.812 109.129C116.683 109.064 116.529 109.064 116.405 109.14C116.121 109.305 116.127 109.723 116.417 109.876V109.87Z" stroke="#AECBE3" stroke-width="0.854626" stroke-miterlimit="10"/>
<path d="M123.146 113.783L124.25 114.378C124.38 114.448 124.546 114.442 124.67 114.366L124.694 114.354C124.977 114.183 124.965 113.766 124.67 113.618L123.542 113.042C123.412 112.977 123.258 112.977 123.134 113.054C122.85 113.218 122.856 113.636 123.146 113.789V113.783Z" stroke="#AECBE3" stroke-width="0.854626" stroke-miterlimit="10"/>
<path d="M129.94 117.72L131.045 118.315C131.175 118.385 131.34 118.379 131.464 118.303L131.488 118.291C131.772 118.12 131.76 117.703 131.464 117.556L130.336 116.979C130.206 116.914 130.052 116.914 129.928 116.991C129.645 117.155 129.651 117.573 129.94 117.726V117.72Z" stroke="#AECBE3" stroke-width="0.854626" stroke-miterlimit="10"/>
<path d="M24.175 53.4249L25.2798 54.0192C25.4097 54.0898 25.5752 54.0839 25.6992 54.0074L25.7229 53.9957C26.0064 53.825 25.9946 53.4072 25.6992 53.2601L24.5708 52.6834C24.4408 52.6187 24.2872 52.6187 24.1631 52.6952C23.8796 52.8599 23.8855 53.2777 24.175 53.4307V53.4249Z" stroke="#AECBE3" stroke-width="0.854626" stroke-miterlimit="10"/>
<path d="M31.1228 57.3087L32.2275 57.903C32.3575 57.9736 32.5229 57.9677 32.647 57.8912L32.6706 57.8795C32.9542 57.7088 32.9424 57.291 32.647 57.1439L31.5186 56.5672C31.3886 56.5025 31.235 56.5025 31.1109 56.579C30.8274 56.7437 30.8333 57.1615 31.1228 57.3145V57.3087Z" stroke="#AECBE3" stroke-width="0.854626" stroke-miterlimit="10"/>
<path d="M37.8522 61.0333L38.957 61.6276C39.087 61.6982 39.2524 61.6923 39.3765 61.6158L39.4001 61.6041C39.6837 61.4334 39.6719 61.0156 39.3765 60.8685L38.248 60.2918C38.1181 60.2271 37.9645 60.2271 37.8404 60.3036C37.5568 60.4683 37.5627 60.8861 37.8522 61.0391V61.0333Z" stroke="#AECBE3" stroke-width="0.854626" stroke-miterlimit="10"/>
<path d="M44.8235 64.941L45.9283 65.5353C46.0582 65.6059 46.2237 65.6001 46.3477 65.5236L46.3714 65.5118C46.6549 65.3411 46.6431 64.9233 46.3477 64.7762L45.2193 64.1995C45.0893 64.1348 44.9357 64.1348 44.8117 64.2113C44.5281 64.3761 44.534 64.7939 44.8235 64.9469V64.941Z" stroke="#AECBE3" stroke-width="0.854626" stroke-miterlimit="10"/>
<path d="M51.5587 68.8487L52.6635 69.443C52.7934 69.5137 52.9589 69.5078 53.0829 69.4313L53.1066 69.4195C53.3901 69.2489 53.3783 68.831 53.0829 68.6839L51.9545 68.1072C51.8245 68.0425 51.6709 68.0425 51.5469 68.119C51.2633 68.2838 51.2692 68.7016 51.5587 68.8546V68.8487Z" stroke="#AECBE3" stroke-width="0.854626" stroke-miterlimit="10"/>
<path d="M58.3468 72.7911L59.4516 73.3854C59.5816 73.456 59.747 73.4502 59.8711 73.3737L59.8947 73.3619C60.1783 73.1912 60.1665 72.7734 59.8711 72.6263L58.7427 72.0496C58.6127 71.9849 58.4591 71.9849 58.335 72.0614C58.0514 72.2262 58.0573 72.644 58.3468 72.797V72.7911Z" stroke="#AECBE3" stroke-width="0.854626" stroke-miterlimit="10"/>
<path d="M20.7663 55.2549L21.8711 55.8493C22.001 55.9199 22.1665 55.914 22.2905 55.8375L22.3142 55.8257C22.5977 55.6551 22.5859 55.2373 22.2905 55.0902L21.1621 54.5135C21.0321 54.4487 20.8785 54.4487 20.7545 54.5252C20.4709 54.69 20.4768 55.1078 20.7663 55.2608V55.2549Z" stroke="#AECBE3" stroke-width="0.854626" stroke-miterlimit="10"/>
<path d="M27.7145 59.1387L28.8193 59.7331C28.9493 59.8037 29.1147 59.7978 29.2388 59.7213L29.2624 59.7095C29.546 59.5389 29.5342 59.1211 29.2388 58.974L28.1103 58.3973C27.9804 58.3325 27.8268 58.3325 27.7027 58.409C27.4191 58.5738 27.425 58.9916 27.7145 59.1446V59.1387Z" stroke="#AECBE3" stroke-width="0.854626" stroke-miterlimit="10"/>
<path d="M34.443 62.8638L35.5478 63.4582C35.6778 63.5288 35.8432 63.5229 35.9673 63.4464L35.9909 63.4346C36.2745 63.264 36.2627 62.8462 35.9673 62.6991L34.8389 62.1224C34.7089 62.0576 34.5553 62.0576 34.4312 62.1341C34.1476 62.2989 34.1535 62.7167 34.443 62.8697V62.8638Z" stroke="#AECBE3" stroke-width="0.854626" stroke-miterlimit="10"/>
<path d="M41.4147 66.7711L42.5195 67.3654C42.6495 67.436 42.8149 67.4301 42.939 67.3536L42.9626 67.3419C43.2462 67.1712 43.2344 66.7534 42.939 66.6063L41.8105 66.0296C41.6806 65.9649 41.527 65.9649 41.4029 66.0414C41.1193 66.2061 41.1252 66.6239 41.4147 66.7769V66.7711Z" stroke="#AECBE3" stroke-width="0.854626" stroke-miterlimit="10"/>
<path d="M48.1437 70.6788L49.2485 71.2731C49.3785 71.3437 49.5439 71.3378 49.668 71.2613L49.6916 71.2496C49.9752 71.0789 49.9634 70.6611 49.668 70.514L48.5395 69.9373C48.4096 69.8726 48.256 69.8726 48.1319 69.9491C47.8483 70.1138 47.8542 70.5317 48.1437 70.6847V70.6788Z" stroke="#AECBE3" stroke-width="0.854626" stroke-miterlimit="10"/>
<path d="M54.9381 74.6211L56.0429 75.2155C56.1729 75.2861 56.3383 75.2802 56.4624 75.2037L56.486 75.192C56.7696 75.0213 56.7578 74.6035 56.4624 74.4564L55.334 73.8797C55.204 73.815 55.0504 73.815 54.9263 73.8915C54.6427 74.0562 54.6487 74.474 54.9381 74.627V74.6211Z" stroke="#AECBE3" stroke-width="0.854626" stroke-miterlimit="10"/>
<path d="M64.8394 76.6402L65.9442 77.2346C66.0742 77.3052 66.2396 77.2993 66.3637 77.2228L66.3873 77.211C66.6709 77.0404 66.6591 76.6225 66.3637 76.4754L65.2353 75.8987C65.1053 75.834 64.9517 75.834 64.8276 75.9105C64.544 76.0753 64.5499 76.4931 64.8394 76.6461V76.6402Z" stroke="#AECBE3" stroke-width="0.854626" stroke-miterlimit="10"/>
<path d="M71.5689 80.3648L72.6737 80.9591C72.8037 81.0298 72.9691 81.0239 73.0932 80.9474L73.1168 80.9356C73.4004 80.765 73.3886 80.3471 73.0932 80.2L71.9647 79.6233C71.8348 79.5586 71.6812 79.5586 71.5571 79.6351C71.2735 79.7999 71.2794 80.2177 71.5689 80.3707V80.3648Z" stroke="#AECBE3" stroke-width="0.854626" stroke-miterlimit="10"/>
<path d="M78.5401 84.2725L79.6449 84.8669C79.7749 84.9375 79.9403 84.9316 80.0644 84.8551L80.088 84.8433C80.3716 84.6727 80.3598 84.2549 80.0644 84.1077L78.9359 83.5311C78.806 83.4663 78.6524 83.4663 78.5283 83.5428C78.2447 83.7076 78.2506 84.1254 78.5401 84.2784V84.2725Z" stroke="#AECBE3" stroke-width="0.854626" stroke-miterlimit="10"/>
<path d="M85.2691 88.1802L86.3739 88.7746C86.5039 88.8452 86.6693 88.8393 86.7934 88.7628L86.817 88.751C87.1006 88.5804 87.0888 88.1626 86.7934 88.0155L85.6649 87.4388C85.535 87.374 85.3814 87.374 85.2573 87.4505C84.9737 87.6153 84.9796 88.0331 85.2691 88.1861V88.1802Z" stroke="#AECBE3" stroke-width="0.854626" stroke-miterlimit="10"/>
<path d="M92.0635 92.1226L93.1683 92.717C93.2983 92.7876 93.4637 92.7817 93.5878 92.7052L93.6114 92.6934C93.895 92.5228 93.8832 92.105 93.5878 91.9579L92.4594 91.3812C92.3294 91.3164 92.1758 91.3164 92.0517 91.3929C91.7681 91.5577 91.7741 91.9755 92.0635 92.1285V92.1226Z" stroke="#AECBE3" stroke-width="0.854626" stroke-miterlimit="10"/>
<path d="M61.4307 78.4757L62.5355 79.07C62.6655 79.1406 62.8309 79.1347 62.955 79.0582L62.9786 79.0465C63.2622 78.8758 63.2504 78.458 62.955 78.3109L61.8266 77.7342C61.6966 77.6694 61.543 77.6695 61.4189 77.746C61.1353 77.9107 61.1412 78.3285 61.4307 78.4815V78.4757Z" stroke="#AECBE3" stroke-width="0.854626" stroke-miterlimit="10"/>
<path d="M68.1539 82.2012L69.2587 82.7956C69.3886 82.8662 69.5541 82.8603 69.6781 82.7838L69.7018 82.772C69.9853 82.6014 69.9735 82.1836 69.6781 82.0365L68.5497 81.4598C68.4197 81.395 68.2661 81.395 68.1421 81.4715C67.8585 81.6363 67.8644 82.0541 68.1539 82.2071V82.2012Z" stroke="#AECBE3" stroke-width="0.854626" stroke-miterlimit="10"/>
<path d="M75.1309 86.1026L76.2357 86.6969C76.3657 86.7676 76.5311 86.7617 76.6552 86.6852L76.6788 86.6734C76.9624 86.5028 76.9506 86.0849 76.6552 85.9378L75.5268 85.3611C75.3968 85.2964 75.2432 85.2964 75.1191 85.3729C74.8355 85.5377 74.8414 85.9555 75.1309 86.1085V86.1026Z" stroke="#AECBE3" stroke-width="0.854626" stroke-miterlimit="10"/>
<path d="M81.8604 90.0157L82.9652 90.61C83.0952 90.6806 83.2606 90.6748 83.3847 90.5983L83.4083 90.5865C83.6919 90.4158 83.6801 89.998 83.3847 89.8509L82.2563 89.2742C82.1263 89.2095 81.9727 89.2095 81.8486 89.286C81.565 89.4508 81.5709 89.8686 81.8604 90.0216V90.0157Z" stroke="#AECBE3" stroke-width="0.854626" stroke-miterlimit="10"/>
<path d="M88.6548 93.9527L89.7596 94.547C89.8896 94.6177 90.055 94.6118 90.1791 94.5353L90.2027 94.5235C90.4863 94.3529 90.4745 93.935 90.1791 93.7879L89.0506 93.2112C88.9207 93.1465 88.7671 93.1465 88.643 93.223C88.3594 93.3878 88.3653 93.8056 88.6548 93.9586V93.9527Z" stroke="#AECBE3" stroke-width="0.854626" stroke-miterlimit="10"/>
<path d="M143.008 115.414L144.066 114.731C144.208 114.643 144.385 114.643 144.527 114.731C144.804 114.896 144.81 115.296 144.538 115.473L143.493 116.167C143.357 116.255 143.185 116.261 143.044 116.185H143.032C142.736 116.02 142.725 115.602 143.008 115.426V115.414Z" stroke="#AECBE3" stroke-width="0.854626" stroke-miterlimit="10"/>
<path d="M149.885 111.264L150.943 110.582C151.084 110.494 151.262 110.494 151.404 110.582C151.681 110.747 151.687 111.147 151.415 111.323L150.37 112.018C150.234 112.106 150.062 112.112 149.921 112.035H149.909C149.613 111.871 149.602 111.453 149.885 111.276V111.264Z" stroke="#AECBE3" stroke-width="0.854626" stroke-miterlimit="10"/>
<path d="M156.532 107.357L157.589 106.675C157.731 106.586 157.908 106.586 158.05 106.675C158.328 106.839 158.334 107.24 158.062 107.416L157.016 108.11C156.88 108.199 156.709 108.205 156.567 108.128H156.555C156.26 107.963 156.248 107.546 156.532 107.369V107.357Z" stroke="#AECBE3" stroke-width="0.854626" stroke-miterlimit="10"/>
<path d="M163.568 103.485L164.626 102.803C164.768 102.714 164.945 102.714 165.087 102.803C165.364 102.967 165.37 103.367 165.098 103.544L164.053 104.238C163.917 104.327 163.746 104.333 163.604 104.256H163.592C163.297 104.091 163.285 103.673 163.568 103.497V103.485Z" stroke="#AECBE3" stroke-width="0.854626" stroke-miterlimit="10"/>
<path d="M176.583 96.1062L177.64 95.4236C177.782 95.3354 177.959 95.3354 178.101 95.4236C178.379 95.5884 178.385 95.9885 178.113 96.1651L177.067 96.8595C176.932 96.9477 176.76 96.9536 176.618 96.8771H176.607C176.311 96.7124 176.299 96.2945 176.583 96.118V96.1062Z" stroke="#AECBE3" stroke-width="0.854626" stroke-miterlimit="10"/>
<path d="M183.667 91.8514L184.724 91.1687C184.866 91.0805 185.043 91.0805 185.185 91.1687C185.463 91.3335 185.469 91.7337 185.197 91.9102L184.151 92.6046C184.016 92.6929 183.844 92.6988 183.702 92.6223H183.691C183.395 92.4575 183.383 92.0397 183.667 91.8631V91.8514Z" stroke="#AECBE3" stroke-width="0.854626" stroke-miterlimit="10"/>
<path d="M190.443 87.9851L191.501 87.3025C191.643 87.2143 191.82 87.2143 191.962 87.3025C192.239 87.4673 192.245 87.8675 191.973 88.044L190.928 88.7384C190.792 88.8267 190.621 88.8325 190.479 88.756H190.467C190.172 88.5913 190.16 88.1735 190.443 87.9969V87.9851Z" stroke="#AECBE3" stroke-width="0.854626" stroke-miterlimit="10"/>
<path d="M197.427 83.9954L198.484 83.3128C198.626 83.2245 198.803 83.2245 198.945 83.3128C199.223 83.4776 199.229 83.8777 198.957 84.0542L197.911 84.7486C197.775 84.8369 197.604 84.8428 197.462 84.7663H197.45C197.155 84.6015 197.143 84.1837 197.427 84.0072V83.9954Z" stroke="#AECBE3" stroke-width="0.854626" stroke-miterlimit="10"/>
<path d="M146.44 117.55L147.498 116.867C147.64 116.779 147.817 116.779 147.959 116.867C148.236 117.032 148.242 117.432 147.971 117.608L146.925 118.303C146.789 118.391 146.618 118.397 146.476 118.32H146.464C146.169 118.156 146.157 117.738 146.44 117.561V117.55Z" stroke="#AECBE3" stroke-width="0.854626" stroke-miterlimit="10"/>
<path d="M153.317 113.407L154.374 112.724C154.516 112.636 154.693 112.636 154.835 112.724C155.113 112.889 155.119 113.289 154.847 113.465L153.801 114.16C153.665 114.248 153.494 114.254 153.352 114.177H153.34C153.045 114.013 153.033 113.595 153.317 113.418V113.407Z" stroke="#AECBE3" stroke-width="0.854626" stroke-miterlimit="10"/>
<path d="M159.964 109.499L161.021 108.817C161.163 108.728 161.34 108.728 161.482 108.817C161.76 108.981 161.766 109.382 161.494 109.558L160.448 110.253C160.312 110.341 160.141 110.347 159.999 110.27H159.987C159.692 110.105 159.68 109.688 159.964 109.511V109.499Z" stroke="#AECBE3" stroke-width="0.854626" stroke-miterlimit="10"/>
<path d="M166.994 105.621L168.052 104.938C168.193 104.85 168.371 104.85 168.512 104.938C168.79 105.103 168.796 105.503 168.524 105.68L167.479 106.374C167.343 106.462 167.171 106.468 167.03 106.392H167.018C166.722 106.227 166.71 105.809 166.994 105.633V105.621Z" stroke="#AECBE3" stroke-width="0.854626" stroke-miterlimit="10"/>
<path d="M180.015 98.242L181.073 97.5594C181.214 97.4711 181.392 97.4711 181.533 97.5594C181.811 97.7241 181.817 98.1243 181.545 98.3008L180.5 98.9952C180.364 99.0835 180.192 99.0894 180.051 99.0129H180.039C179.743 98.8481 179.731 98.4303 180.015 98.2538V98.242Z" stroke="#AECBE3" stroke-width="0.854626" stroke-miterlimit="10"/>
<path d="M187.099 93.9934L188.157 93.3108C188.298 93.2226 188.476 93.2226 188.617 93.3108C188.895 93.4756 188.901 93.8758 188.629 94.0523L187.584 94.7467C187.448 94.8349 187.276 94.8408 187.135 94.7643H187.123C186.827 94.5996 186.815 94.1818 187.099 94.0052V93.9934Z" stroke="#AECBE3" stroke-width="0.854626" stroke-miterlimit="10"/>
<path d="M193.875 90.1272L194.933 89.4446C195.075 89.3564 195.252 89.3564 195.394 89.4446C195.671 89.6094 195.677 90.0095 195.406 90.1861L194.36 90.8805C194.224 90.9687 194.053 90.9746 193.911 90.8981H193.899C193.604 90.7334 193.592 90.3155 193.875 90.139V90.1272Z" stroke="#AECBE3" stroke-width="0.854626" stroke-miterlimit="10"/>
<path d="M200.859 86.1375L201.916 85.4549C202.058 85.3666 202.235 85.3666 202.377 85.4549C202.655 85.6196 202.661 86.0198 202.389 86.1963L201.343 86.8907C201.207 86.979 201.036 86.9849 200.894 86.9084H200.883C200.587 86.7436 200.575 86.3258 200.859 86.1493V86.1375Z" stroke="#AECBE3" stroke-width="0.854626" stroke-miterlimit="10"/>
<path d="M21.6469 45.1756L22.7044 44.493C22.8462 44.4047 23.0235 44.4047 23.1653 44.493C23.4429 44.6577 23.4488 45.0579 23.1771 45.2344L22.1314 45.9288C21.9955 46.0171 21.8242 46.023 21.6824 45.9465H21.6705C21.3751 45.7817 21.3633 45.3639 21.6469 45.1873V45.1756Z" stroke="#AECBE3" stroke-width="0.854626" stroke-miterlimit="10"/>
<path d="M28.518 41.0262L29.5755 40.3435C29.7173 40.2553 29.8946 40.2553 30.0363 40.3435C30.314 40.5083 30.3199 40.9085 30.0482 41.085L29.0025 41.7794C28.8666 41.8677 28.6952 41.8735 28.5535 41.797H28.5416C28.2462 41.6323 28.2344 41.2145 28.518 41.0379V41.0262Z" stroke="#AECBE3" stroke-width="0.854626" stroke-miterlimit="10"/>
<path d="M35.1703 37.1189L36.2279 36.4363C36.3697 36.348 36.5469 36.348 36.6887 36.4363C36.9664 36.6011 36.9723 37.0012 36.7005 37.1778L35.6548 37.8722C35.5189 37.9604 35.3476 37.9663 35.2058 37.8898H35.194C34.8986 37.7251 34.8868 37.3072 35.1703 37.1307V37.1189Z" stroke="#AECBE3" stroke-width="0.854626" stroke-miterlimit="10"/>
<path d="M42.2006 33.2405L43.2581 32.5579C43.3999 32.4696 43.5772 32.4696 43.719 32.5579C43.9966 32.7227 44.0025 33.1228 43.7308 33.2994L42.6851 33.9938C42.5492 34.082 42.3779 34.0879 42.2361 34.0114H42.2243C41.9289 33.8466 41.917 33.4288 42.2006 33.2523V33.2405Z" stroke="#AECBE3" stroke-width="0.854626" stroke-miterlimit="10"/>
<path d="M55.2162 25.8616L56.2738 25.179C56.4156 25.0907 56.5928 25.0907 56.7346 25.179C57.0123 25.3438 57.0182 25.7439 56.7464 25.9205L55.7007 26.6148C55.5648 26.7031 55.3935 26.709 55.2517 26.6325H55.2399C54.9445 26.4677 54.9327 26.0499 55.2162 25.8734V25.8616Z" stroke="#AECBE3" stroke-width="0.854626" stroke-miterlimit="10"/>
<path d="M62.2997 21.6131L63.3573 20.9305C63.4991 20.8422 63.6763 20.8422 63.8181 20.9305C64.0958 21.0952 64.1017 21.4954 63.8299 21.6719L62.7842 22.3663C62.6483 22.4546 62.477 22.4605 62.3352 22.384H62.3234C62.028 22.2192 62.0162 21.8014 62.2997 21.6248V21.6131Z" stroke="#AECBE3" stroke-width="0.854626" stroke-miterlimit="10"/>
<path d="M69.0757 17.7469L70.1332 17.0642C70.275 16.976 70.4523 16.976 70.5941 17.0642C70.8717 17.229 70.8776 17.6292 70.6059 17.8057L69.5602 18.5001C69.4243 18.5884 69.253 18.5942 69.1112 18.5177H69.0993C68.8039 18.353 68.7921 17.9352 69.0757 17.7586V17.7469Z" stroke="#AECBE3" stroke-width="0.854626" stroke-miterlimit="10"/>
<path d="M76.0654 13.7571L77.123 13.0745C77.2648 12.9862 77.442 12.9862 77.5838 13.0745C77.8615 13.2393 77.8674 13.6394 77.5956 13.816L76.5499 14.5104C76.414 14.5986 76.2427 14.6045 76.1009 14.528H76.0891C75.7937 14.3632 75.7819 13.9454 76.0654 13.7689V13.7571Z" stroke="#AECBE3" stroke-width="0.854626" stroke-miterlimit="10"/>
<path d="M25.0795 47.3118L26.1371 46.6292C26.2788 46.5409 26.4561 46.5409 26.5979 46.6292C26.8756 46.794 26.8815 47.1941 26.6097 47.3707L25.564 48.065C25.4281 48.1533 25.2568 48.1592 25.115 48.0827H25.1032C24.8078 47.9179 24.7959 47.5001 25.0795 47.3236V47.3118Z" stroke="#AECBE3" stroke-width="0.854626" stroke-miterlimit="10"/>
<path d="M31.9506 43.1624L33.0081 42.4798C33.1499 42.3915 33.3272 42.3915 33.469 42.4798C33.7466 42.6445 33.7526 43.0447 33.4808 43.2212L32.4351 43.9156C32.2992 44.0039 32.1279 44.0098 31.9861 43.9333H31.9743C31.6789 43.7685 31.667 43.3507 31.9506 43.1742V43.1624Z" stroke="#AECBE3" stroke-width="0.854626" stroke-miterlimit="10"/>
<path d="M38.603 39.2552L39.6605 38.5725C39.8023 38.4843 39.9795 38.4843 40.1213 38.5725C40.399 38.7373 40.4049 39.1375 40.1331 39.314L39.0874 40.0084C38.9515 40.0967 38.7802 40.1026 38.6384 40.0261H38.6266C38.3312 39.8613 38.3194 39.4435 38.603 39.2669V39.2552Z" stroke="#AECBE3" stroke-width="0.854626" stroke-miterlimit="10"/>
<path d="M45.6332 35.3767L46.6908 34.6941C46.8326 34.6059 47.0098 34.6059 47.1516 34.6941C47.4293 34.8589 47.4352 35.2591 47.1634 35.4356L46.1177 36.13C45.9818 36.2182 45.8105 36.2241 45.6687 36.1476H45.6569C45.3615 35.9829 45.3497 35.5651 45.6332 35.3885V35.3767Z" stroke="#AECBE3" stroke-width="0.854626" stroke-miterlimit="10"/>
<path d="M58.6484 28.0042L59.7059 27.3216C59.8477 27.2333 60.0249 27.2333 60.1667 27.3216C60.4444 27.4863 60.4503 27.8865 60.1785 28.063L59.1328 28.7574C58.9969 28.8457 58.8256 28.8516 58.6838 28.7751H58.672C58.3766 28.6103 58.3648 28.1925 58.6484 28.016V28.0042Z" stroke="#AECBE3" stroke-width="0.854626" stroke-miterlimit="10"/>
<path d="M65.7324 23.7493L66.7899 23.0667C66.9317 22.9784 67.1089 22.9784 67.2507 23.0667C67.5284 23.2315 67.5343 23.6316 67.2625 23.8082L66.2168 24.5025C66.0809 24.5908 65.9096 24.5967 65.7678 24.5202H65.756C65.4606 24.3554 65.4488 23.9376 65.7324 23.7611V23.7493Z" stroke="#AECBE3" stroke-width="0.854626" stroke-miterlimit="10"/>
<path d="M72.5083 19.8831L73.5658 19.2005C73.7076 19.1122 73.8849 19.1122 74.0267 19.2005C74.3043 19.3652 74.3102 19.7654 74.0385 19.9419L72.9928 20.6363C72.8569 20.7246 72.6856 20.7305 72.5438 20.654H72.532C72.2366 20.4892 72.2247 20.0714 72.5083 19.8949V19.8831Z" stroke="#AECBE3" stroke-width="0.854626" stroke-miterlimit="10"/>
<path d="M79.4981 15.8933L80.5556 15.2107C80.6974 15.1225 80.8746 15.1225 81.0164 15.2107C81.2941 15.3755 81.3 15.7757 81.0282 15.9522L79.9825 16.6466C79.8466 16.7349 79.6753 16.7407 79.5335 16.6642H79.5217C79.2263 16.4995 79.2145 16.0817 79.4981 15.9051V15.8933Z" stroke="#AECBE3" stroke-width="0.854626" stroke-miterlimit="10"/>
<path d="M218.547 81.0296V84.1955L138.554 130.143L5.16943 53.872V50.918L138.252 127.189L218.547 81.0296Z" stroke="#AECBE3" stroke-width="0.854626" stroke-miterlimit="10"/>
<path d="M218.547 81.9474L138.282 128.142L5.16943 51.8594" stroke="#AECBE3" stroke-width="0.854626" stroke-miterlimit="10"/>
<path d="M218.547 82.9719L138.282 129.16L5.16943 52.8779" stroke="#AECBE3" stroke-width="0.854626" stroke-miterlimit="10"/>
<path d="M148.171 124.617C185.652 138.446 241.08 114.425 214.666 86.4258" stroke="#AECBE3" stroke-width="0.854626" stroke-miterlimit="10"/>
<path d="M216.479 85.3838C241.352 109.964 197.225 142.547 145.684 126.047" stroke="#AECBE3" stroke-width="0.854626" stroke-miterlimit="10"/>
<path d="M81.6536 7.18324C36.1918 -12.1419 -23.3841 19.129 10.055 48.1226" stroke="#AECBE3" stroke-width="0.854626" stroke-miterlimit="10"/>
<path d="M11.426 47.3401C-17.5585 23.4661 28.3168 -9.29357 79.4975 8.41327" stroke="#AECBE3" stroke-width="0.854626" stroke-miterlimit="10"/>
</g>
<defs>
<clipPath id="clip0_1_4435">
<rect width="223.912" height="129.903" fill="white" transform="translate(0 0.916504)"/>
</clipPath>
</defs>
</svg>
