<svg width="1135" height="565" viewBox="0 0 1135 565" fill="none" xmlns="http://www.w3.org/2000/svg">
<path d="M559.506 264C557.219 264 554.953 263.612 552.709 262.835C550.509 262.058 548.567 260.936 546.884 259.469L549.861 254.291C552.882 256.88 556.14 258.174 559.635 258.174C562.397 258.174 564.684 257.376 566.496 255.779C568.309 254.14 569.215 251.809 569.215 248.789C569.215 245.898 568.352 243.654 566.626 242.057C564.9 240.417 562.591 239.597 559.7 239.597C558.146 239.597 556.464 239.835 554.651 240.309C552.839 240.784 551.113 241.431 549.473 242.251V218.69H575.105V224.516H555.298V234.354C556.722 233.966 558.298 233.772 560.024 233.772C563.001 233.772 565.633 234.419 567.921 235.714C570.208 236.965 571.977 238.756 573.228 241.086C574.48 243.373 575.105 245.984 575.105 248.918C575.105 252.112 574.372 254.852 572.905 257.139C571.481 259.426 569.582 261.152 567.208 262.317C564.835 263.439 562.268 264 559.506 264ZM603.199 264C599.272 264 595.69 263.029 592.454 261.087C589.217 259.102 586.65 256.384 584.751 252.931C582.852 249.479 581.903 245.617 581.903 241.345C581.903 237.116 582.852 233.275 584.751 229.823C586.65 226.371 589.217 223.652 592.454 221.667C595.733 219.682 599.315 218.69 603.199 218.69C607.082 218.69 610.642 219.682 613.879 221.667C617.158 223.652 619.748 226.371 621.646 229.823C623.545 233.275 624.494 237.116 624.494 241.345C624.494 245.617 623.545 249.479 621.646 252.931C619.748 256.384 617.18 259.102 613.944 261.087C610.707 263.029 607.125 264 603.199 264ZM603.199 258.174C606.09 258.174 608.701 257.441 611.031 255.974C613.404 254.506 615.26 252.5 616.597 249.954C617.978 247.365 618.669 244.495 618.669 241.345C618.669 238.238 617.978 235.412 616.597 232.866C615.26 230.276 613.404 228.248 611.031 226.781C608.701 225.271 606.09 224.516 603.199 224.516C600.307 224.516 597.675 225.271 595.302 226.781C592.971 228.248 591.116 230.276 589.735 232.866C588.397 235.412 587.728 238.238 587.728 241.345C587.728 244.495 588.397 247.365 589.735 249.954C591.116 252.5 592.971 254.506 595.302 255.974C597.675 257.441 600.307 258.174 603.199 258.174Z" fill="white"/>
<rect x="636.047" y="223.116" width="20.0246" height="2.86065" transform="rotate(45 636.047 223.116)" fill="white"/>
<rect x="650.207" y="222.14" width="20.0246" height="2.86065" transform="rotate(135 650.207 222.14)" fill="white"/>
<path d="M74.2655 184.725C75.7327 181.791 77.6961 179.396 80.1558 177.54C82.6155 175.642 85.4851 174.692 88.7647 174.692C91.397 174.692 93.792 175.297 95.9496 176.505C98.1504 177.713 99.8765 179.396 101.128 181.554C102.422 183.668 103.07 186.041 103.07 188.674C103.07 190.831 102.66 192.881 101.84 194.823C101.02 196.722 99.9628 198.34 98.6682 199.678L84.5574 214.177H103.07V220.002H75.819V214.889L94.5903 195.6C95.4102 194.737 96.0575 193.723 96.5321 192.558C97.0068 191.392 97.2442 190.184 97.2442 188.933C97.2442 186.473 96.4458 184.466 94.8492 182.913C93.2526 181.316 91.3107 180.518 89.0236 180.518C86.8229 180.518 84.8378 181.295 83.0686 182.848C81.2993 184.359 79.94 186.344 78.9907 188.803L74.2655 184.725ZM132.135 220.002C128.209 220.002 124.627 219.032 121.39 217.09C118.154 215.105 115.586 212.386 113.688 208.934C111.789 205.482 110.84 201.62 110.84 197.347C110.84 193.118 111.789 189.278 113.688 185.826C115.586 182.374 118.154 179.655 121.39 177.67C124.67 175.685 128.252 174.692 132.135 174.692C136.019 174.692 139.579 175.685 142.816 177.67C146.095 179.655 148.684 182.374 150.583 185.826C152.482 189.278 153.431 193.118 153.431 197.347C153.431 201.62 152.482 205.482 150.583 208.934C148.684 212.386 146.117 215.105 142.88 217.09C139.644 219.032 136.062 220.002 132.135 220.002ZM132.135 214.177C135.027 214.177 137.637 213.443 139.968 211.976C142.341 210.509 144.197 208.502 145.534 205.956C146.915 203.367 147.606 200.498 147.606 197.347C147.606 194.24 146.915 191.414 145.534 188.868C144.197 186.279 142.341 184.251 139.968 182.783C137.637 181.273 135.027 180.518 132.135 180.518C129.244 180.518 126.612 181.273 124.239 182.783C121.908 184.251 120.053 186.279 118.672 188.868C117.334 191.414 116.665 194.24 116.665 197.347C116.665 200.498 117.334 203.367 118.672 205.956C120.053 208.502 121.908 210.509 124.239 211.976C126.612 213.443 129.244 214.177 132.135 214.177Z" fill="white"/>
<path d="M175.382 194.888L171.122 189.024L169.15 191.023V194.888H166.888V176.481H169.15V188.104L175.145 181.74H178.327L172.647 187.473L178.327 194.888H175.382ZM178.317 188.314C178.317 186.982 178.588 185.799 179.132 184.764C179.675 183.712 180.429 182.897 181.393 182.319C182.375 181.723 183.488 181.425 184.733 181.425C185.715 181.425 186.609 181.617 187.415 182.003C188.221 182.371 188.844 182.88 189.282 183.528V181.74H191.543V194.178C191.543 196.247 191 197.816 189.913 198.885C188.844 199.955 187.275 200.489 185.206 200.489C183.751 200.489 182.533 200.226 181.551 199.7C180.587 199.174 179.815 198.359 179.237 197.255L180.999 195.861C181.893 197.614 183.357 198.491 185.39 198.491C188.037 198.491 189.361 197.053 189.361 194.178V193.1C188.923 193.749 188.292 194.266 187.468 194.652C186.644 195.02 185.741 195.204 184.759 195.204C183.462 195.204 182.322 194.923 181.341 194.362C180.376 193.784 179.631 192.977 179.105 191.943C178.58 190.909 178.317 189.699 178.317 188.314ZM189.44 188.314C189.44 186.842 189.054 185.676 188.283 184.817C187.511 183.958 186.46 183.528 185.127 183.528C183.795 183.528 182.717 183.967 181.893 184.843C181.069 185.72 180.657 186.877 180.657 188.314C180.657 189.752 181.069 190.909 181.893 191.785C182.717 192.662 183.795 193.1 185.127 193.1C186.46 193.1 187.511 192.671 188.283 191.812C189.054 190.953 189.44 189.787 189.44 188.314Z" fill="white"/>
<path d="M24.9998 199.888C701 45.8882 412 515.451 1135 364.451" stroke="white" stroke-opacity="0.3"/>
<circle cx="24" cy="199.888" r="23.1909" stroke="white" stroke-opacity="0.2" stroke-width="1.61822"/>
<circle cx="24" cy="199.888" r="4" fill="#FFC600"/>
<circle cx="800" cy="389.451" r="10.1909" stroke="white" stroke-opacity="0.2" stroke-width="1.61822"/>
<circle cx="800" cy="389.451" r="6" fill="#FFC600"/>
<path d="M847.729 408.496C845.917 408.496 844.191 408.28 842.551 407.848C840.954 407.417 839.228 406.705 837.372 405.712L839.832 400.405C842.68 401.915 845.377 402.67 847.923 402.67C851.16 402.67 853.77 401.483 855.755 399.11C857.74 396.693 858.733 393.543 858.733 389.66C856.187 391.817 853.274 392.896 849.995 392.896C847.146 392.896 844.601 392.27 842.357 391.019C840.113 389.767 838.365 388.041 837.114 385.841C835.862 383.597 835.236 381.072 835.236 378.267C835.236 375.419 835.884 372.852 837.178 370.565C838.473 368.278 840.242 366.487 842.486 365.192C844.773 363.854 847.319 363.186 850.124 363.186C852.627 363.186 854.914 363.725 856.985 364.804C859.057 365.839 860.783 367.35 862.164 369.335C863.242 370.975 864.019 372.916 864.494 375.16C864.968 377.361 865.206 380.144 865.206 383.51C865.206 391.709 863.717 397.923 860.74 402.152C857.805 406.381 853.468 408.496 847.729 408.496ZM849.995 387.07C852.713 387.07 854.914 386.229 856.597 384.546C858.323 382.82 859.186 380.619 859.186 377.944C859.186 375.311 858.323 373.175 856.597 371.536C854.914 369.853 852.735 369.011 850.059 369.011C847.427 369.011 845.269 369.874 843.586 371.6C841.903 373.326 841.062 375.527 841.062 378.203C841.062 380.835 841.882 382.971 843.522 384.611C845.161 386.251 847.319 387.07 849.995 387.07ZM893.969 408.496C890.042 408.496 886.46 407.525 883.224 405.583C879.987 403.598 877.42 400.879 875.521 397.427C873.622 393.975 872.673 390.113 872.673 385.841C872.673 381.612 873.622 377.771 875.521 374.319C877.42 370.867 879.987 368.148 883.224 366.163C886.503 364.178 890.085 363.186 893.969 363.186C897.852 363.186 901.412 364.178 904.649 366.163C907.928 368.148 910.517 370.867 912.416 374.319C914.315 377.771 915.264 381.612 915.264 385.841C915.264 390.113 914.315 393.975 912.416 397.427C910.517 400.879 907.95 403.598 904.713 405.583C901.477 407.525 897.895 408.496 893.969 408.496ZM893.969 402.67C896.86 402.67 899.47 401.936 901.801 400.469C904.174 399.002 906.03 396.995 907.367 394.449C908.748 391.86 909.439 388.991 909.439 385.841C909.439 382.734 908.748 379.907 907.367 377.361C906.03 374.772 904.174 372.744 901.801 371.277C899.47 369.766 896.86 369.011 893.969 369.011C891.077 369.011 888.445 369.766 886.072 371.277C883.741 372.744 881.886 374.772 880.505 377.361C879.167 379.907 878.498 382.734 878.498 385.841C878.498 388.991 879.167 391.86 880.505 394.449C881.886 396.995 883.741 399.002 886.072 400.469C888.445 401.936 891.077 402.67 893.969 402.67Z" fill="white"/>
<path d="M926.182 366.043C923.763 366.043 921.922 367.884 921.922 370.303C921.922 372.723 923.763 374.563 926.182 374.563C928.601 374.563 930.442 372.723 930.442 370.303C930.442 367.884 928.601 366.043 926.182 366.043ZM924.315 383.373L925.63 384.451L939.383 367.095L938.068 366.043L924.315 383.373ZM928.707 370.303C928.707 371.776 927.655 372.828 926.182 372.828C924.71 372.828 923.658 371.776 923.658 370.303C923.658 368.831 924.71 367.779 926.182 367.779C927.655 367.779 928.707 368.831 928.707 370.303ZM933.203 380.191C933.203 382.61 935.044 384.451 937.463 384.451C939.882 384.451 941.723 382.61 941.723 380.191C941.723 377.772 939.882 375.931 937.463 375.931C935.044 375.931 933.203 377.772 933.203 380.191ZM937.463 377.666C938.936 377.666 939.988 378.718 939.988 380.191C939.988 381.663 938.936 382.715 937.463 382.715C935.991 382.715 934.939 381.663 934.939 380.191C934.939 378.718 935.991 377.666 937.463 377.666Z" fill="white"/>
<circle cx="507" cy="239.451" r="23.1909" stroke="white" stroke-opacity="0.2" stroke-width="1.61822"/>
<circle cx="507" cy="239.451" r="4" fill="#FFC600"/>
</svg>
